<svg width="70" height="47" viewBox="0 0 70 47" fill="none" xmlns="http://www.w3.org/2000/svg">
<g id="Kontur">
<g id="1963222405536">
<path id="Vector" d="M46.3062 46.6667H0V0H46.3062V15.9676H44.1596V2.16331H2.1466V44.5032H44.1596V30.5959H46.3062V46.6667Z" fill="white"/>
<path id="Vector_2" d="M9.46094 18.5403H11.6115V22.6721L14.6899 18.5403H17.2708L13.7355 22.916L17.553 28.0232H14.8244L11.6115 23.5121V28.0232H9.46094V18.5403Z" fill="white"/>
<path id="Vector_3" d="M23.1622 26.0682C24.8969 26.0682 25.7968 24.8329 25.7968 23.2818C25.7968 21.5994 24.636 20.4954 23.1622 20.4954C21.6492 20.4954 20.5277 21.5994 20.5277 23.2818C20.5277 24.8591 21.7016 26.0682 23.1622 26.0682ZM23.1622 18.5239C25.9401 18.5239 28.0139 20.3508 28.0139 23.2818C28.0139 26.0682 25.9401 28.0399 23.1622 28.0399C20.3844 28.0399 18.3105 26.2128 18.3105 23.2818C18.3105 20.6137 20.2538 18.5239 23.1622 18.5239Z" fill="white"/>
<path id="Vector_4" d="M37.061 28.0233L32.5984 22.3334V28.0233H30.582V18.543H32.3025L36.7655 24.2573L36.7626 18.5433H38.7788L38.7817 28.0233H37.061Z" fill="white"/>
<path id="Vector_5" d="M41.3711 18.5403H49.1675V20.5724H46.3446V28.0232H44.1938V20.5724H41.3711V18.5403Z" fill="white"/>
<path id="Vector_6" d="M59.6005 23.9441C59.6005 26.8433 57.7724 28.0219 55.7562 28.0219C53.3366 28.0219 51.6562 26.6263 51.6562 23.8495V18.5442H53.807V23.3888C53.807 24.8654 54.2507 25.9898 55.7562 25.9898C57.06 25.9898 57.4499 25.0281 57.4499 23.5106V18.5442H59.6005V23.9441Z" fill="white"/>
<path id="Vector_7" d="M64.3363 20.6035V22.703H65.1158C65.9359 22.703 66.581 22.4052 66.581 21.6059C66.581 21.0776 66.3137 20.6013 65.2786 20.6013C64.9561 20.6013 64.78 20.5899 64.3363 20.6035ZM62.1855 28.0219V18.5442C62.7098 18.5442 65.1158 18.5442 65.3848 18.5442C67.9522 18.5442 68.8662 19.8314 68.8662 21.5789C68.8662 23.3399 67.791 24.0578 67.2801 24.3153L69.9999 28.0219H67.392L65.1293 24.7352H64.3363V28.0219H62.1855Z" fill="white"/>
</g>
</g>
</svg>
