<svg width="170" height="132" viewBox="0 0 170 132" fill="none" xmlns="http://www.w3.org/2000/svg">
<g id="&#208;&#161;&#208;&#187;&#208;&#190;&#208;&#185;_x0020_1">
<g id="Group">
<path id="Vector" d="M12.6114 71.4795C158.263 71.4795 158.263 71.4795 158.263 71.4795H12.6114ZM22.9205 132.001C147.954 132.001 147.953 132.001 147.953 132.001H22.9205ZM37.4464 54.1905V55.8193C37.4464 56.418 36.5157 56.4186 36.5157 55.8193V54.1905C36.5157 53.5918 37.4464 53.591 37.4464 54.1905ZM40.0044 53.7254H59.076C59.1403 53.7254 59.1978 53.7363 59.2484 53.7556C59.406 53.7383 59.5636 53.7181 59.7212 53.6936C61.4493 53.4261 63.1408 52.8737 64.8774 52.7533C66.6114 52.6336 68.4267 52.4947 70.1037 53.0459C71.1769 53.3984 73.5676 54.3473 75.0065 53.8973L79.4187 49.9807V48.525H71.8696C71.4217 48.525 71.4211 47.8287 71.8696 47.8287H79.4187V43.821H78.1105L78.0912 43.8414L77.1169 44.8164C76.6735 45.26 75.9836 44.5707 76.4276 44.126L76.7333 43.821H72.0439C71.8198 43.821 71.8193 43.4727 72.0439 43.4727H77.0814L77.4024 43.151C77.7327 42.8215 78.1974 43.1166 78.2328 43.4727H79.4187V30.7539H69.6055C69.1574 30.7539 69.1565 30.0574 69.6055 30.0574H79.4187V22.9138H76.572C76.1241 22.9138 76.1233 22.2175 76.572 22.2175H79.4187V13.8549H76.7461C76.2982 13.8549 76.2965 13.1578 76.7461 13.1578H79.4187V10.3696H78.4879C78.0395 10.3696 78.0384 9.67334 78.4879 9.67334H79.4187V5.24244L75.2446 8.94799C75.5058 9.00501 75.7643 8.9902 76.0277 8.98069C76.0356 8.97986 76.0417 8.97622 76.0493 8.97622H76.1683C76.3924 8.97622 76.3924 9.3217 76.1683 9.3245C75.8867 9.32813 75.6011 9.36699 75.3211 9.32394C75.1851 9.30242 75.0568 9.26384 74.9274 9.2289L73.6424 10.3699H75.4675C75.6916 10.3699 75.6916 10.7187 75.4675 10.7187H73.2499L70.32 13.3199C70.3694 13.311 70.4192 13.3037 70.4678 13.2878C70.6488 13.2302 70.8064 13.1709 70.9867 13.16C70.9911 13.16 70.9939 13.1581 70.9984 13.1581C71.0364 13.1581 71.0744 13.1581 71.1129 13.1586C71.3331 13.1762 71.3398 13.5083 71.1129 13.5069C70.8486 13.4857 70.6416 13.6215 70.3882 13.6676C70.2278 13.6961 70.0652 13.6953 69.9023 13.6903L69.0188 14.4749C69.2163 14.4559 69.4141 14.4349 69.6178 14.4025C70.743 14.2225 71.8998 14.3647 73.0331 14.3776C73.2571 14.3798 73.2577 14.7262 73.0331 14.7262H72.9143C72.909 14.7262 72.9056 14.7239 72.9012 14.7231C71.7248 14.7027 70.5692 14.5939 69.4094 14.8237C69.1275 14.8799 68.8444 14.8723 68.5622 14.8799L68.2607 15.1477H74.8257C74.9459 15.1477 74.9459 15.3338 74.8257 15.3338H68.0509L64.9092 18.1231C65.8237 18.0843 66.722 17.9864 67.6368 17.8447C68.7972 17.6644 69.9763 17.7237 71.1454 17.7251C71.2345 17.7256 71.235 17.8646 71.1454 17.8646C69.8975 17.8615 68.6469 17.8045 67.4113 18.0236C67.1842 18.0639 66.9567 18.0982 66.7287 18.1276H76.752C77.3502 18.1276 77.3513 19.0587 76.752 19.0587H65.3554C65.1057 19.0587 64.9598 18.8963 64.9187 18.7073C64.6932 18.7101 64.4661 18.7151 64.2359 18.7207L58.3356 23.9591H61.5946C61.8187 23.9591 61.8187 24.308 61.5946 24.308H57.943L57.8287 24.4094H66.9844C67.2834 24.4094 67.2834 24.8746 66.9844 24.8746H57.3051L54.3353 27.5104H57.8265C57.9156 27.5104 57.9156 27.6493 57.8265 27.6493H54.2881C54.2559 27.6493 54.2352 27.6312 54.226 27.6077L51.8597 29.7085H55.0696C55.0374 29.6697 55.0542 29.5922 55.1204 29.5922H63.2372C63.3264 29.5922 63.3269 29.7309 63.2372 29.7309H60.981C61.0151 29.751 61.0391 29.7815 61.052 29.8167C61.0827 29.8049 61.1151 29.7952 61.1481 29.7865C61.4627 29.7046 61.7815 29.7572 62.1003 29.7605C62.2571 29.7622 62.37 29.8293 62.4448 29.9243C62.5384 29.8256 62.674 29.7605 62.7977 29.7605C63.0763 29.7605 63.2297 29.976 63.2627 30.2265C63.3194 30.6455 63.1691 31.0329 62.9665 31.3915C62.672 31.9131 61.8681 31.4452 62.1635 30.9213C62.2152 30.8299 62.2548 30.7433 62.2853 30.6552C62.2319 30.6779 62.1705 30.6924 62.1003 30.6916C61.8983 30.6896 61.6977 30.6712 61.496 30.6712C61.3862 30.672 61.494 30.6673 61.4172 30.679C61.4121 30.6801 61.4071 30.6821 61.4026 30.6826C61.4026 30.6857 61.4026 30.6885 61.4026 30.6916C61.4046 31.29 60.4742 31.2909 60.4719 30.6916C60.4717 30.61 60.48 30.5311 60.4971 30.4562C59.7865 30.4411 58.7966 30.8884 58.1771 30.9202C57.0003 30.9809 55.8064 30.9275 54.6278 30.928C54.1799 30.928 54.1791 30.2318 54.6278 30.2309C56.1076 30.2301 57.7768 30.4263 59.2244 30.0747C59.247 30.0691 59.2691 30.0624 59.2914 30.0571H51.4669L43.0284 37.5484H48.5328C48.7569 37.5484 48.7569 37.8972 48.5328 37.8972H42.6356L42.58 37.9467H51.7583C51.8773 37.9467 51.8773 38.132 51.7583 38.132H42.3713L41.8418 38.6022H47.2157C47.5146 38.6022 47.5155 39.0673 47.2157 39.0673H41.3182L36.842 43.0415C37.538 42.9296 38.2321 42.8103 38.9572 42.7776C40.4889 42.7085 41.9742 42.9872 43.4942 43.0224C44.0924 43.037 44.0944 43.9669 43.4942 43.9535C41.8979 43.9163 40.34 43.5929 38.732 43.7391C37.6221 43.8403 36.6445 44.065 35.5889 44.1542L35.5713 44.1699H44.5275C44.6725 44.1699 44.7239 44.3155 44.6811 44.4186H44.8899C45.1888 44.4186 45.1897 44.8846 44.8899 44.8846H38.3782C38.1684 44.8846 38.1052 44.6551 38.1899 44.5181H35.1787L32.8722 46.5662H40.3629C40.4827 46.5662 40.4827 46.7515 40.3629 46.7515H32.6632L27.9177 50.9649H36.2891C36.5132 50.9649 36.5132 51.3129 36.2891 51.3129H27.5251L24.7758 53.7542C24.7565 53.771 24.7386 53.7841 24.7196 53.8003C25.2466 53.8244 25.7827 53.8316 26.341 53.8098C27.3421 53.7721 28.5788 53.4811 29.5036 53.9585H34.6562C35.2547 53.9585 35.2553 54.8888 34.6562 54.8888H22.3301C21.9512 54.8888 21.8112 54.5173 21.9115 54.2439C20.4765 53.8912 19.0881 53.343 17.6156 53.1865C16.6463 53.0836 15.7743 53.4054 14.8157 53.4733C13.8548 53.5412 12.9417 53.6242 11.99 53.788C10.5128 54.0429 9.12801 54.1838 7.71616 54.0524C7.10844 53.7265 6.55969 53.4437 6.01232 53.2365C6.08581 53.1546 6.19394 53.1043 6.33169 53.1384C10.5876 54.1774 14.8886 51.688 19.1152 52.8231C20.6511 53.2354 22.066 53.5538 23.5349 53.7123C23.602 53.5026 23.773 53.2474 24.082 52.973L24.9979 52.1596C24.2362 52.0603 23.4849 51.8756 22.7132 51.8574C22.244 51.8465 22.2426 51.1164 22.7132 51.1273C23.74 51.1511 24.7294 51.4675 25.7548 51.4879L28.9465 48.6539C27.7344 48.5443 26.5612 48.2852 25.3695 47.9911C24.5779 47.7949 23.7861 47.5853 22.9789 47.4603C22.0406 47.315 21.0929 47.5134 20.1739 47.3667C18.8006 47.1464 18.0169 46.0681 16.4745 46.3571C14.9179 46.6492 13.432 47.4187 12.1062 48.2516C10.9512 48.9773 9.9274 49.6794 8.56361 49.9109C7.18389 50.1445 5.75778 49.938 4.40628 50.3349C3.06288 50.7298 1.55966 51.1731 0.272144 51.7039C0.17966 51.7417 0.0891315 51.7856 0.000838227 51.8331C0.0212351 51.7059 0.024588 51.5762 0 51.4482C0.253424 51.2489 0.490363 51.0306 0.732052 50.8184C2.04472 50.3933 3.38085 49.8443 4.71698 49.5508C6.09419 49.2487 7.52057 49.5005 8.89694 49.1536C10.6226 48.7193 11.9961 47.3776 13.6002 46.6425C15.5307 45.7578 17.1465 45.2751 19.0867 46.1701C20.631 46.8823 22.3879 46.6243 24.0585 46.979C25.9308 47.3759 27.7224 47.9598 29.6514 48.0277L31.0893 46.7512H30.3581C30.2382 46.7512 30.2382 46.5659 30.3581 46.5659H31.298L34.1184 44.0617C33.8549 43.804 33.9552 43.2391 34.424 43.2553C34.6286 43.2626 34.8303 43.2609 35.0298 43.2525L39.744 39.0673H38.6912C38.3922 39.0673 38.3908 38.6022 38.6912 38.6022H40.2679L40.7973 38.132H37.5839C37.4651 38.132 37.4651 37.9467 37.5839 37.9467H41.0061L55.7306 24.874H53.0302C52.7312 24.874 52.7301 24.4089 53.0302 24.4089H56.2545L61.2342 19.9878H57.9142C57.615 19.9878 57.6141 19.5229 57.9142 19.5229H61.7578L66.8344 15.016C66.8511 14.9612 66.8925 14.9179 66.9584 14.9059L70.1437 12.078H66.9847C66.6857 12.078 66.6843 11.6121 66.9847 11.6121H70.6684L76.6955 6.261H70.938C70.6391 6.261 70.6379 5.79588 70.938 5.79588H77.2194L79.1591 4.07378C79.251 3.99216 79.3385 3.9262 79.424 3.86722C79.4723 3.32691 80.2295 3.27073 80.4201 3.7037C80.4818 3.74172 80.5433 3.78476 80.607 3.84094L81.6768 4.79046C81.5919 4.51933 81.733 4.16658 82.1018 4.16658C82.7003 4.16658 82.7011 5.09765 82.1018 5.09765C82.0714 5.09765 82.0423 5.09486 82.0149 5.09038L85.1717 7.89282C85.308 7.9012 85.4472 7.89617 85.5827 7.88555C85.6618 7.8794 85.7389 7.86011 85.816 7.85257C85.8481 7.68737 86.1192 7.58814 86.2572 7.77151C86.455 8.03453 86.1695 8.25004 85.9356 8.30371C85.8537 8.32243 85.7688 8.33641 85.6827 8.34647L86.469 9.0447C87.265 9.00082 88.0485 8.83758 88.8476 8.81941C89.1466 8.8127 89.1466 9.27866 88.8476 9.28537C88.2097 9.2999 87.5813 9.4064 86.949 9.47097L95.6118 17.1619C95.6847 17.028 95.8205 16.9304 96.0197 16.9304C96.5171 16.9304 96.6202 17.544 96.3279 17.7978L101.535 22.421C101.613 22.343 101.724 22.2924 101.866 22.2924C102.308 22.2924 102.438 22.7765 102.258 23.0625L105.293 25.7567C105.356 25.7237 105.432 25.7042 105.521 25.7042C105.906 25.7042 106.054 26.0715 105.967 26.3552L105.998 26.3828L112.743 20.3953C112.745 20.3931 112.746 20.3925 112.748 20.3911C112.821 19.8793 113.555 19.8335 113.742 20.2572C113.803 20.2952 113.864 20.3391 113.928 20.3953L130.96 35.516C130.975 35.3478 131.075 35.1893 131.285 35.1283C131.428 35.0867 131.57 35.0414 131.71 34.9931C131.951 34.91 132.215 35.0887 132.283 35.3184C132.296 35.3634 132.309 35.4081 132.322 35.4529C132.449 35.885 131.976 36.1312 131.66 35.9851L131.533 36.0248L131.904 36.3535C131.981 36.3814 132.035 36.4345 132.07 36.501L132.339 36.7398H135.129C135.729 36.7398 135.73 37.6708 135.129 37.6708H133.387L136.008 39.9978H139.316C139.615 39.9978 139.616 40.4626 139.316 40.4626H136.532L140.726 44.1858H140.944C141.153 44.1858 141.216 44.4116 141.134 44.5483L143.085 46.2797H145.595C145.896 46.2797 145.896 46.7445 145.595 46.7445H143.608L144.394 47.4424H148.155C148.753 47.4424 148.754 48.3735 148.155 48.3735H145.443L146.753 49.5369H149.317C149.916 49.5369 149.916 50.4679 149.317 50.4679H147.802L148.561 51.1421C148.534 50.9554 148.637 50.7463 148.88 50.7463C149.813 50.7486 150.948 50.4649 151.907 50.3617C152.797 50.267 153.672 49.8572 154.583 50.0039C155.57 50.1621 156.08 51.0924 157.019 51.3571C158.321 51.7244 160.108 51.3987 161.355 51.098C161.78 50.9957 161.962 51.6506 161.536 51.7537C159.636 52.2107 157.669 52.3983 155.856 51.5798C155.149 51.2609 154.411 50.7296 153.542 50.7187C153.04 50.7122 152.45 51.0113 151.955 51.1049C150.972 51.2911 149.902 51.4275 148.881 51.4261L151.307 53.5798L150.923 53.8104C150.89 54.0114 150.743 54.19 150.479 54.19H147.689C147.09 54.19 147.09 53.2597 147.689 53.2597H149.372L148.356 52.3577H142.516C142.633 52.6331 142.497 53.0269 142.107 53.0269H137.689C137.299 53.0269 137.162 52.6331 137.279 52.3577H137.007C136.782 52.3577 136.782 52.0095 137.007 52.0095H147.963L147.374 51.4868H146.503C146.474 51.567 146.404 51.6307 146.293 51.6307H138.153C138.042 51.6307 137.972 51.567 137.943 51.4868H123.595C123.148 51.4868 123.147 50.7897 123.595 50.7897H130.92C130.81 50.5216 130.943 50.1423 131.321 50.1423H134.949C135.326 50.1423 135.46 50.5216 135.349 50.7897H146.59L146.298 50.5311H139.014C138.924 50.5311 138.924 50.3922 139.014 50.3922H143.941C143.866 50.3408 143.813 50.2667 143.782 50.1834H142.552C142.485 50.1834 142.468 50.106 142.501 50.0665H141.408C140.971 50.0665 140.97 49.3876 141.408 49.3876H145.01L144.813 49.2118H142.483C142.393 49.2118 142.393 49.0731 142.483 49.0731H144.657L144.223 48.6882C144.192 48.6969 144.162 48.7078 144.124 48.7078C143.941 48.7078 143.838 48.5873 143.81 48.4487H138.528C138.502 48.4487 138.487 48.4364 138.476 48.4207C138.45 48.4602 138.415 48.494 138.372 48.5194C138.367 48.5225 138.364 48.5258 138.359 48.5289C138.312 48.5538 138.257 48.5706 138.191 48.5706H138.009C137.925 48.5706 137.857 48.5465 137.804 48.5085C137.834 48.7092 137.723 48.9356 137.461 48.9356C137.44 48.9356 137.425 48.9267 137.406 48.9247C137.354 49.0335 137.254 49.1179 137.097 49.1179H136.914C136.444 49.1179 136.444 48.388 136.914 48.388H137.097C137.118 48.388 137.133 48.3967 137.152 48.3989C137.204 48.2899 137.304 48.2055 137.461 48.2055C137.553 48.2055 137.622 48.2382 137.677 48.2835C137.66 48.1874 137.666 48.0851 137.717 48.0009H137.006C136.557 48.0009 136.556 47.3044 137.006 47.3044H142.664L142.311 46.9907H137.487C137.397 46.9907 137.397 46.8518 137.487 46.8518H139.928C139.863 46.7853 139.822 46.6989 139.805 46.607H132.477C132.253 46.607 132.253 46.259 132.477 46.259H139.861C139.931 46.1354 140.06 46.0457 140.246 46.0457C140.43 46.0457 140.551 46.1371 140.621 46.259H141.486L141.138 45.9493H136.377C136.288 45.9493 136.288 45.8106 136.377 45.8106H140.981L140.753 45.6069C140.696 45.682 140.611 45.736 140.489 45.736H138.05C137.602 45.736 137.601 45.0392 138.05 45.0392H140.112L139.916 44.8645H136.831C136.607 44.8645 136.606 44.5162 136.831 44.5162H138.179C138.149 44.4421 138.154 44.351 138.197 44.2833H133.324C133.235 44.2833 133.234 44.1444 133.324 44.1444H139.105L138.635 43.7282H135.822C135.732 43.7282 135.732 43.589 135.822 43.589H138.479L138.245 43.3808H133.462C133.373 43.3808 133.373 43.2419 133.462 43.2419H138.089L137.747 42.9383C137.731 42.9406 137.719 42.9478 137.701 42.9478H133.87C133.422 42.9478 133.421 42.2507 133.87 42.2507H136.972L136.525 41.8546H130.965C130.875 41.8546 130.875 41.7151 130.965 41.7151H136.369L136.187 41.5547H128.819C128.595 41.5547 128.595 41.2056 128.819 41.2056H135.794L135.352 40.8129H132.617C132.61 40.828 132.602 40.8433 132.594 40.8576C132.511 41.027 132.339 41.1391 132.106 41.0516C132.091 41.0454 132.076 41.039 132.06 41.0328C132.047 41.0292 132.035 41.025 132.023 41.0192C131.308 40.7477 130.601 40.4568 129.864 40.2578H123.542C123.452 40.2578 123.452 40.1191 123.542 40.1191H127.395C127.049 39.9942 126.701 39.8192 126.332 39.8094C125.864 39.7971 125.861 39.0673 126.332 39.0796C126.45 39.0827 126.563 39.0986 126.676 39.1218C126.685 39.0992 126.702 39.0796 126.733 39.0779C126.913 39.0701 127.088 39.043 127.263 39.0089H124.97C124.945 39.1579 124.835 39.2892 124.639 39.2892H121.854C121.405 39.2892 121.404 38.5921 121.854 38.5921H124.639C124.833 38.5921 124.943 38.7218 124.969 38.8697H127.115C127.028 38.844 126.956 38.7819 126.915 38.679C126.532 38.5289 126.721 37.895 127.159 37.9981C127.208 38.0099 127.258 38.0216 127.307 38.0325C127.425 38.0607 127.533 38.1692 127.561 38.288C127.573 38.3366 127.585 38.3864 127.596 38.4356C127.649 38.6581 127.507 38.8174 127.337 38.8702H127.879C128.058 38.8291 128.238 38.7914 128.421 38.7693C128.69 38.7366 128.958 38.7548 129.228 38.757C129.518 38.7598 129.781 38.6978 130.065 38.662C130.286 38.634 130.52 38.6642 130.742 38.6606C130.975 38.6575 131.205 38.6466 131.438 38.6729C131.882 38.7232 132.324 38.7305 132.768 38.731V38.5924H129.168C128.944 38.5924 128.943 38.2441 129.168 38.2441H129.342C129.149 38.2441 129.039 38.115 129.012 37.9674H127.218C127.129 37.9674 127.129 37.8288 127.218 37.8288H129.011C129.036 37.6798 129.146 37.547 129.341 37.547H130.212C130.407 37.547 130.518 37.6798 130.543 37.8288H131.99L131.443 37.3432H126.733C126.644 37.3432 126.643 37.2046 126.733 37.2046H131.287L131.085 37.024H126.033C125.585 37.024 125.583 36.3277 126.033 36.3277H130.3L130.193 36.2327H124.305C124.215 36.2327 124.215 36.0932 124.305 36.0932H130.036L129.711 35.8051H126.381C126.157 35.8051 126.157 35.4562 126.381 35.4562H128.704C128.649 35.3805 128.618 35.2865 128.614 35.1912H126.316C126.227 35.1912 126.227 35.0523 126.316 35.0523H128.627C128.64 34.9978 128.661 34.9458 128.692 34.8997L128.534 34.7597H125.685C125.461 34.7597 125.461 34.4108 125.685 34.4108H128.141L127.613 33.9424H125.423C125.367 34.0139 125.281 34.0628 125.162 34.0628H124.814C124.41 34.0628 124.371 33.5007 124.693 33.3867H123.565C123.866 33.6114 123.982 34.0181 124.13 34.389C124.24 34.441 124.325 34.5414 124.325 34.6998V34.8388C124.327 34.8505 124.325 34.8606 124.325 34.8715V34.8824C124.325 34.8877 124.323 34.8905 124.322 34.8947C124.321 34.9335 124.315 34.9704 124.301 35.0048C124.259 35.1244 124.162 35.1954 124.049 35.2203C124.021 35.2281 123.993 35.232 123.965 35.2343C123.962 35.2343 123.96 35.2343 123.957 35.2343C123.877 35.2379 123.797 35.215 123.728 35.1577C123.704 35.1395 123.686 35.1152 123.667 35.0903C123.66 35.0808 123.652 35.0775 123.645 35.0666C123.642 35.0613 123.641 35.0562 123.637 35.0512C123.633 35.0425 123.628 35.0344 123.624 35.0252C123.517 34.8413 123.42 34.6529 123.34 34.4541C123.296 34.3432 123.232 33.9862 123.134 33.9572C122.856 33.8747 122.824 33.5731 122.947 33.387H121.946C121.856 33.387 121.856 33.248 121.946 33.248H123.148C123.187 33.2394 123.229 33.2416 123.274 33.248H126.832L126.533 32.9839C126.49 33.0043 126.441 33.0174 126.381 33.0174H123.246C122.798 33.0174 122.798 32.3203 123.246 32.3203H125.787L125.424 31.9992H122.431C122.342 31.9992 122.342 31.8602 122.431 31.8602H125.267L124.754 31.4041C124.726 31.4301 124.689 31.4493 124.639 31.4493H122.201C121.977 31.4493 121.977 31.1011 122.201 31.1011H124.412L124.408 31.0966H121.557C121.387 31.1265 121.217 31.1536 121.044 31.1659C120.997 31.1695 120.976 31.1332 120.978 31.0966H119.656C119.567 31.0966 119.567 30.9577 119.656 30.9577H121.066C120.965 30.8336 120.938 30.6519 121.084 30.506C121.096 30.494 121.106 30.4831 121.118 30.4716H120.696C120.607 30.4716 120.607 30.3327 120.696 30.3327H121.257L121.258 30.3313C121.414 30.1759 121.611 30.2153 121.735 30.3327H123.547L123.431 30.229H122.027C121.803 30.229 121.803 29.8807 122.027 29.8807H123.038L122.922 29.7781H119.865C119.775 29.7781 119.775 29.6392 119.865 29.6392H122.766L122.297 29.2227H119.295C119.332 29.3572 119.261 29.5263 119.08 29.5263H116.987C116.688 29.5263 116.688 29.0603 116.987 29.0603H119.08C119.12 29.0603 119.155 29.0687 119.185 29.0838H119.35C119.166 28.8895 119.244 28.4809 119.589 28.4873C120.027 28.4951 120.459 28.5471 120.894 28.4661C121.048 28.4367 121.2 28.409 121.352 28.3836L121.281 28.3199H117.852C117.763 28.3199 117.763 28.181 117.852 28.181H121.124L120.953 28.0292C120.931 28.0876 120.89 28.1379 120.808 28.1379H118.196C117.972 28.1379 117.971 27.7896 118.196 27.7896H118.922L118.82 27.6876C118.746 27.6138 118.718 27.53 118.719 27.4495C118.407 27.4858 118.097 27.5434 117.783 27.556C117.694 27.5593 117.694 27.421 117.783 27.417C118.075 27.4053 118.363 27.3547 118.652 27.3178C118.607 27.2331 118.615 27.1194 118.674 27.0444C118.428 27.069 118.174 27.0498 117.94 27.1367C117.856 27.168 117.82 27.0344 117.903 27.0031C118.194 26.8941 118.529 26.9229 118.835 26.8798C119.102 26.8426 119.368 26.8521 119.635 26.8586L119.507 26.744H117.673C117.224 26.744 117.224 26.0469 117.673 26.0469H118.721L118.467 25.8204H116.638C116.589 25.8526 116.529 25.8733 116.454 25.8733C116.381 25.8733 116.32 25.8526 116.27 25.8204H116.257C116.211 25.8204 116.189 25.7833 116.191 25.7475C116.039 25.5476 116.126 25.1759 116.454 25.1759C116.608 25.1759 116.708 25.2589 116.755 25.3668C116.766 25.3486 116.785 25.3346 116.812 25.3346H117.919L117.74 25.1756H116.454C116.23 25.1756 116.229 24.827 116.454 24.827H116.626C116.613 24.8142 116.605 24.7974 116.605 24.779H115.355C115.266 24.779 115.266 24.64 115.355 24.64H116.714L116.913 24.4408L116.825 24.3628H115.771C115.682 24.3628 115.682 24.2238 115.771 24.2238H116.669L116.563 24.1297H115.235C115.011 24.1297 115.011 23.7814 115.235 23.7814H116.171L115.73 23.3909H115.077C114.988 23.3909 114.988 23.2522 115.077 23.2522H115.574L114.525 22.3206C114.462 22.3011 114.329 22.3961 114.275 22.4098C114.154 22.4408 114.022 22.4198 113.898 22.4193C113.809 22.4184 113.809 22.2798 113.898 22.2804C113.996 22.2812 114.099 22.2966 114.196 22.2826C114.266 22.2731 114.321 22.2382 114.385 22.2116C114.389 22.2094 114.393 22.208 114.397 22.2066L113.783 21.6618V22.3539C113.84 22.3751 113.84 22.4626 113.783 22.483V22.5576H114.431C114.521 22.5576 114.521 22.6963 114.431 22.6963H113.783V22.7357H114.827C115.052 22.7357 115.052 23.0837 114.827 23.0837H113.783V23.297C113.949 23.3283 114.096 23.2956 114.281 23.2713C114.41 23.255 114.537 23.2645 114.665 23.2595C114.665 23.2251 114.687 23.1871 114.731 23.1821C114.829 23.169 114.88 23.184 114.924 23.2704C114.944 23.3084 114.928 23.361 114.882 23.3719C114.653 23.4258 114.417 23.3923 114.185 23.4325C114.041 23.4574 113.914 23.4652 113.783 23.4412V23.6061H114.146C114.165 23.5961 114.186 23.5966 114.204 23.6061H114.827C115.034 23.6061 115.05 23.9027 114.874 23.9477C114.911 23.9544 114.946 23.986 114.936 24.0332C114.932 24.0525 114.928 24.0721 114.925 24.0908C114.92 24.1126 114.897 24.1352 114.876 24.1392C114.628 24.1856 114.44 24.2157 114.186 24.223C114.049 24.2266 113.917 24.2465 113.783 24.2641V24.4774H114.827C115.052 24.4774 115.052 24.8262 114.827 24.8262H113.783V24.9584C113.854 24.9984 113.94 24.9883 114.036 24.9992C114.213 25.0196 114.368 25.0767 114.501 25.1913C114.696 25.2058 114.955 25.2787 115.098 25.1451C115.163 25.0848 115.261 25.1823 115.196 25.2435C115.037 25.3917 114.829 25.3531 114.628 25.3372C114.625 25.3372 114.622 25.3372 114.619 25.3372C114.655 25.4151 114.659 25.4993 114.633 25.5759C114.734 25.5588 114.836 25.5432 114.937 25.5401C115.03 25.537 115.127 25.5585 115.219 25.5488C115.22 25.5144 115.242 25.4775 115.286 25.4722C115.363 25.4627 115.351 25.4604 115.422 25.4906C115.478 25.5133 115.49 25.5809 115.438 25.6167C115.355 25.6751 115.284 25.6877 115.183 25.6905C114.976 25.6969 114.788 25.6927 114.578 25.7248C114.562 25.7271 114.547 25.729 114.531 25.7313C114.493 25.7662 114.449 25.7964 114.397 25.816L114.282 25.859C114.18 25.897 114.072 25.864 113.988 25.7975C113.921 25.8034 113.852 25.8093 113.783 25.8121V26.0318C113.798 26.0304 113.813 26.0284 113.828 26.0276C114.076 26.0189 114.294 26.0284 114.543 25.9932C114.702 25.9711 114.856 25.9633 115.015 25.9596C115.184 25.956 115.328 25.897 115.493 25.8881C115.582 25.8836 115.582 26.0231 115.493 26.0276C115.336 26.0348 115.215 26.1019 115.054 26.1005C114.828 26.0983 114.617 26.1327 114.392 26.1589C114.22 26.1793 114.055 26.1656 113.883 26.1676C113.849 26.1684 113.816 26.1718 113.783 26.1752V26.4401C114.265 26.5218 114.744 26.5651 115.234 26.5679C115.682 26.5709 115.684 27.2681 115.234 27.265C114.745 27.2616 114.264 27.2197 113.783 27.1442V27.4391H115.424C115.491 27.3005 115.624 27.1965 115.824 27.1965C116.422 27.1965 116.424 28.1276 115.824 28.1276C115.579 28.1276 115.435 27.9716 115.39 27.7877H113.783V28.136H116.279C116.728 28.136 116.729 28.8331 116.279 28.8331H113.783V29.0122H115.68C115.769 29.0122 115.769 29.1509 115.68 29.1509H113.783V29.3588C114.143 29.3583 114.504 29.3533 114.858 29.2742C114.997 29.2426 115.106 29.2115 115.251 29.2129C115.448 29.2141 115.652 29.2462 115.846 29.2048C115.852 29.1763 115.873 29.1523 115.909 29.1509C115.949 29.1495 115.988 29.1486 116.028 29.1472C116.093 29.1453 116.125 29.2465 116.063 29.2767C115.704 29.4461 115.276 29.3337 114.895 29.408C114.522 29.481 114.158 29.4941 113.783 29.4972V29.7046H115.878C116.072 29.7046 116.098 29.9646 115.957 30.0353C115.959 30.0383 115.962 30.0406 115.963 30.0434L115.973 30.0892C115.981 30.1281 115.961 30.1608 115.924 30.1748C115.597 30.2958 115.192 30.2866 114.849 30.3221C114.501 30.359 114.138 30.3419 113.783 30.3344V30.5761H115.06C115.284 30.5761 115.284 30.9244 115.06 30.9244H113.783V31.164H115.885C115.975 31.164 115.975 31.3026 115.885 31.3026H113.783V31.5835C113.982 31.5332 114.183 31.4586 114.321 31.4443C114.661 31.4094 115.01 31.4435 115.351 31.4474C116.299 31.4575 117.247 31.4474 118.195 31.4474C118.443 31.4474 118.554 31.6604 118.528 31.8507H120.01C120.309 31.8507 120.31 32.3167 120.01 32.3167H116.507C116.522 32.3575 116.501 32.4131 116.445 32.4131H113.783V32.6672H116.926C117.15 32.6672 117.15 33.0155 116.926 33.0155H113.783V33.3814C114.065 33.4406 114.369 33.4135 114.65 33.3791C114.855 33.3551 115.06 33.3249 115.266 33.3185C115.459 33.3126 115.652 33.3397 115.844 33.3274C115.842 33.2922 115.864 33.2519 115.909 33.2461C116.007 33.2338 116.058 33.2492 116.102 33.3347C116.122 33.3724 116.106 33.4264 116.06 33.437C115.853 33.4842 115.656 33.4616 115.445 33.4566C115.177 33.4498 114.915 33.4865 114.65 33.5178C114.369 33.5522 114.066 33.5776 113.782 33.5245V33.8867H115.186C115.633 33.8867 115.634 34.5836 115.186 34.5836H113.782V34.9321H117.101C117.325 34.9321 117.326 35.281 117.101 35.281H113.782V35.3986H117.345C117.434 35.3986 117.434 35.5373 117.345 35.5373H113.782V35.8842H115.701C115.756 35.8842 115.777 35.9373 115.764 35.9778H117.446C117.894 35.9778 117.894 36.6749 117.446 36.6749H116.215C116.178 36.7129 116.125 36.7375 116.056 36.7375H113.783V36.9745C114.087 36.9544 114.391 36.9265 114.695 36.9254C115.146 36.9228 115.597 36.9254 116.048 36.9254C116.137 36.9254 116.137 37.064 116.048 37.064C115.597 37.064 115.146 37.0618 114.695 37.064C114.39 37.0654 114.087 37.0931 113.783 37.1138V37.3611C113.908 37.3508 114.032 37.3427 114.158 37.3418C114.51 37.3388 114.863 37.3519 115.216 37.3499C115.484 37.3474 115.738 37.2722 116.005 37.2761C116.094 37.2775 116.396 37.3293 116.539 37.2921C116.528 37.2468 116.562 37.1895 116.621 37.2052C116.643 37.2107 116.664 37.2169 116.684 37.2219C116.726 37.2339 116.751 37.287 116.726 37.3242C116.652 37.4346 116.49 37.4251 116.371 37.4274C116.077 37.433 115.825 37.4251 115.529 37.471C115.174 37.526 114.79 37.4808 114.431 37.4808C114.279 37.4808 114.128 37.4883 113.977 37.4967C114.158 37.5677 114.338 37.6515 114.534 37.701C115.001 37.8201 115.457 37.5557 115.928 37.5464C115.929 37.5464 115.929 37.5456 115.931 37.5456L116.045 37.5464C116.266 37.5646 116.273 37.8961 116.045 37.8953L115.931 37.8944C115.788 37.8964 115.647 37.9224 115.508 37.9543C115.586 38.0241 115.604 38.1488 115.56 38.2427H116.932C117.156 38.2427 117.157 38.591 116.932 38.591H114.69L114.71 38.6114C114.773 38.6751 114.674 38.7727 114.612 38.7092L114.493 38.591H113.783V38.799H116.304C116.393 38.799 116.394 38.9379 116.304 38.9379H113.783V39.2797C114.093 39.2308 114.396 39.2163 114.73 39.2163C115.221 39.2163 115.699 39.1643 116.187 39.1469C116.276 39.1433 116.276 39.2817 116.187 39.2856C115.742 39.3018 115.31 39.3544 114.863 39.3549C114.49 39.3549 114.139 39.3644 113.783 39.4209V39.4628H118.021C118.469 39.4628 118.469 40.1594 118.021 40.1594H113.783V40.1876H115.978C116.068 40.1876 116.068 40.3265 115.978 40.3265H113.783V40.5082H121.445C121.669 40.5082 121.669 40.8568 121.445 40.8568H113.783V41.0904H119.378C119.467 41.0904 119.468 41.2291 119.378 41.2291H113.88C113.948 41.2861 114.017 41.3409 114.082 41.3954C116.659 41.4312 119.225 41.5502 121.793 41.5541C122.241 41.5547 122.241 42.2504 121.793 42.2504H121.678C121.675 42.2504 121.673 42.249 121.67 42.249C119.039 42.2418 116.421 42.1171 113.783 42.0886V42.2703H116.534C116.623 42.2703 116.624 42.4092 116.534 42.4092H113.783V42.6703C113.982 42.6476 114.194 42.6082 114.362 42.5839C114.601 42.5498 114.841 42.5023 115.082 42.4805C115.746 42.4212 116.424 42.542 117.089 42.5476C117.179 42.5484 117.179 42.6876 117.089 42.6862C116.379 42.68 115.643 42.5375 114.937 42.639C114.688 42.6747 114.438 42.7326 114.189 42.7555C114.847 42.7563 115.505 42.7563 116.164 42.7563C116.375 42.7563 116.597 42.7885 116.806 42.7541C116.984 42.725 117.128 42.6951 117.309 42.68C117.68 42.6485 117.962 42.4805 118.344 42.5624C118.366 42.5668 118.388 42.5886 118.393 42.6104C118.397 42.6303 118.401 42.6493 118.405 42.668C118.422 42.7555 118.289 42.793 118.27 42.7052C118.248 42.5956 117.713 42.7242 117.681 42.7329C117.502 42.7818 117.377 42.7994 117.196 42.8148C117.182 42.8156 117.168 42.8192 117.156 42.8204C117.296 42.9067 117.342 43.0937 117.293 43.2455C117.364 43.2626 117.358 43.3805 117.276 43.3805C117.253 43.3805 117.231 43.3805 117.208 43.3805C117.153 43.4345 117.076 43.4702 116.976 43.4702H116.801C116.703 43.4702 116.628 43.4353 116.572 43.3833C116.175 43.3847 115.778 43.3864 115.381 43.38C115.356 43.4303 115.307 43.4683 115.234 43.4705C114.903 43.4792 114.608 43.6296 114.281 43.6662C114.116 43.6852 113.949 43.6801 113.782 43.6704V44.0667C113.959 44.0522 114.125 44.0178 114.308 43.9954C114.538 43.9653 114.772 44.0047 115.003 44.0055C115.559 44.0069 116.106 43.8859 116.661 43.8688C116.665 43.8683 116.668 43.8669 116.672 43.8669H116.718C116.807 43.8669 116.807 44.0038 116.718 44.0055C116.144 44.0156 115.578 44.1481 115.003 44.1444C114.745 44.143 114.484 44.1 114.228 44.1481C114.07 44.1771 113.934 44.1989 113.783 44.2084V44.2831H117.97C118.059 44.2831 118.059 44.4217 117.97 44.4217H113.783V44.6903H115.756C115.918 44.6903 115.958 44.8687 115.888 44.9693H116.275C116.712 44.9693 116.713 45.6488 116.275 45.6488H113.783V46.018H118.684C118.774 46.018 118.774 46.1569 118.684 46.1569H113.783V46.2584H117.798C118.246 46.2584 118.247 46.9547 117.798 46.9547H115.975C116.005 47.0078 116.025 47.0676 116.034 47.1291H119.414C119.638 47.1291 119.638 47.4774 119.414 47.4774H115.966C115.951 47.5014 115.933 47.5246 115.913 47.5453H118.198C118.288 47.5453 118.288 47.6842 118.198 47.6842H113.782V47.9615H119.447C119.536 47.9615 119.537 48.1004 119.447 48.1004H113.782V48.1748H124.465C124.913 48.1748 124.913 48.8719 124.465 48.8719H113.782V49.0944C113.818 49.0622 113.882 49.0639 113.895 49.1229C113.915 49.223 115.566 49.1402 115.729 49.1399C116.321 49.1385 116.896 49.1682 117.48 49.2744C117.817 49.3364 118.155 49.4027 118.498 49.4172C118.785 49.4284 119.016 49.3392 119.289 49.2794C119.461 49.2422 119.704 49.1209 119.792 49.3311C119.827 49.4136 119.692 49.4497 119.658 49.3683C119.651 49.3532 119.516 49.3806 119.351 49.4195H119.586C119.676 49.4195 119.676 49.5581 119.586 49.5581H118.747C118.623 49.5684 118.498 49.567 118.372 49.5581H113.782V49.7557C113.919 49.7515 114.054 49.7406 114.194 49.7071C114.332 49.6744 114.464 49.6406 114.597 49.6151C114.624 49.5883 114.661 49.569 114.711 49.5687C114.813 49.5687 114.915 49.5687 115.016 49.5693C115.138 49.5701 115.193 49.673 115.182 49.7666H117.426C117.472 49.6548 117.574 49.569 117.731 49.569H119.413C119.862 49.569 119.863 50.2661 119.413 50.2661H118.241C118.236 50.2957 118.215 50.322 118.177 50.322H113.782V50.5996H114.956C115.001 50.49 115.102 50.4062 115.255 50.4062H116.953C117.107 50.4062 117.207 50.4903 117.252 50.5996H118.545C118.602 50.5996 118.623 50.6577 118.606 50.6988H121.87C122.169 50.6988 122.17 51.1648 121.87 51.1648H113.782V51.4859H115.839C116.063 51.4859 116.063 51.8342 115.839 51.8342H113.782V51.9181H117.643C117.732 51.9181 117.732 52.057 117.643 52.057H113.782V52.3569H117.275C117.499 52.3569 117.499 52.7052 117.275 52.7052H113.782V52.9112C114.375 52.9833 114.968 52.9433 115.567 52.966C116.16 52.9886 116.741 52.888 117.337 52.8902C117.659 52.8916 117.98 52.8888 118.301 52.888C118.686 52.8871 119.092 52.9268 119.471 52.8645C120.049 52.7695 120.599 53.0071 121.181 53.0294C121.27 53.0325 121.271 53.1711 121.181 53.1683C120.879 53.1566 120.588 53.099 120.292 53.0465C120.064 53.0057 119.849 52.9458 119.614 52.9735C119.495 52.9881 119.388 53.0219 119.267 53.0289C118.696 53.0655 118.109 53.0428 117.532 53.0322C117.669 53.0535 117.768 53.1289 117.829 53.2282H120.806C121.254 53.2282 121.255 53.9253 120.806 53.9253H117.628C117.576 53.9454 117.517 53.9571 117.451 53.9571H110.553C110.486 53.9571 110.428 53.9454 110.376 53.9253H108.152C107.704 53.9253 107.703 53.2282 108.152 53.2282H110.175C110.246 53.1105 110.372 53.0261 110.553 53.0261H112.737L112.737 52.9956V52.1593C112.702 52.1716 112.665 52.1828 112.621 52.1828C112.396 52.1828 112.284 52.0089 112.284 51.8345H110.882C110.818 51.9818 110.683 52.0953 110.474 52.0953C110.265 52.0953 110.128 51.9818 110.065 51.8345H108.789C108.34 51.8345 108.339 51.1374 108.789 51.1374H112.32C112.307 51.1111 112.29 51.0899 112.284 51.0563C112.28 51.0306 109.079 50.9607 108.55 50.8243C108.122 50.7133 104.46 50.0869 104.422 50.3592C104.36 50.8017 103.689 50.6133 103.75 50.1739L103.771 50.0291C103.785 49.9226 103.909 49.803 104.014 49.7862C105.195 49.5933 106.585 49.6417 107.766 49.8768C108.633 50.0489 109.415 50.3103 110.313 50.341C111.137 50.369 111.878 50.3103 112.687 50.4869C112.704 50.4906 112.72 50.4992 112.736 50.5065V47.675H103.496C102.897 47.675 102.895 46.7439 103.496 46.7439H105.9C105.757 46.468 105.881 46.0457 106.287 46.0457H106.519C106.924 46.0457 107.049 46.468 106.906 46.7439H112.488C112.416 46.5558 112.498 46.3093 112.736 46.271V44.3423H110.704C110.256 44.3423 110.256 43.6458 110.704 43.6458H112.736V42.0662C112.482 42.0246 112.405 41.7442 112.506 41.5528C110.575 41.5432 108.668 41.3755 106.748 41.3806C106.301 41.3806 106.3 40.6848 106.748 40.6835H106.873C106.877 40.6835 106.88 40.6857 106.884 40.6865C108.8 40.6896 110.694 40.8559 112.62 40.8582C112.664 40.8582 112.701 40.8696 112.736 40.8819V38.3682H110.24C109.941 38.3682 109.94 37.9031 110.24 37.9031H112.736V37.3737H111.749C111.384 37.3737 111.316 36.9103 111.547 36.7392H109.31C109.011 36.7392 109.011 36.2741 109.31 36.2741H112.736V35.9795H110.356C109.908 35.9795 109.907 35.2829 110.356 35.2829H112.736V34.2138C112.701 34.2261 112.664 34.2375 112.62 34.2375H111.044C110.973 34.3756 110.836 34.4776 110.633 34.4776C110.43 34.4776 110.293 34.3756 110.221 34.2375H106.524C106.077 34.2375 106.075 33.5404 106.524 33.5404H110.437C110.493 33.5167 110.559 33.503 110.633 33.503C110.707 33.503 110.772 33.5167 110.828 33.5404H112.62C112.664 33.5404 112.7 33.5524 112.736 33.5639V32.0545C112.731 32.0509 112.727 32.0486 112.722 32.045C112.537 31.8938 112.593 31.6872 112.736 31.5667V29.3591H111.227C110.779 29.3591 110.778 28.6623 111.227 28.6623H112.499C112.44 28.5577 112.439 28.4286 112.493 28.3123C112.521 28.2548 112.543 28.1972 112.561 28.136C112.568 28.1097 112.575 28.0826 112.58 28.0557C112.59 27.9923 112.572 28.0979 112.58 28.0415C112.581 28.0342 112.581 28.0342 112.583 28.0292C112.583 28.0283 112.582 28.0283 112.581 28.0278C112.571 28.0233 112.557 28.0177 112.553 28.0169C112.507 28.0037 112.461 27.9923 112.414 27.9842C112.407 27.9842 112.327 27.9752 112.31 27.9741C112.239 27.9691 112.168 27.9677 112.097 27.9663C111.65 27.9568 111.648 27.2602 112.097 27.2692C112.301 27.2734 112.531 27.2809 112.736 27.3435V25.1644C112.736 25.1644 112.735 25.1644 112.734 25.1636C112.733 25.1636 112.732 25.1636 112.731 25.1627C112.696 25.1555 112.662 25.1482 112.634 25.1323C112.511 25.0906 112.396 25.0342 112.261 25.0029C111.991 24.9402 111.676 24.9998 111.401 25.0037C110.952 25.0104 110.952 24.3133 111.401 24.3074C111.691 24.303 111.986 24.2686 112.276 24.3029C112.431 24.3214 112.584 24.412 112.735 24.4578V21.7954L107.242 26.6721C107.487 26.6872 107.734 26.6786 107.961 26.6394C108.042 26.4116 108.324 26.264 108.512 26.5005L108.626 26.6442C108.797 26.8588 108.734 27.1283 108.473 27.2267C107.922 27.4355 107.164 27.4056 106.551 27.286L105.994 27.781L103.935 29.6082H109.279C109.398 29.6082 109.398 29.7932 109.279 29.7932H106.926C107.109 29.865 107.201 30.0484 107.2 30.2307H108.266C108.714 30.2307 108.714 30.9278 108.266 30.9278H102.449L93.8082 38.5994C93.8105 38.6813 93.7834 38.7654 93.7082 38.8403L93.6065 38.9426H103.159C103.608 38.9426 103.609 39.6389 103.159 39.6389H92.6367L88.6841 43.148C88.7096 43.1798 88.7283 43.2195 88.7389 43.2693C88.7629 43.3861 88.5838 43.4359 88.5595 43.319C88.5562 43.3025 88.5483 43.2888 88.5377 43.2776L85.5715 45.9107H88.2371C88.6853 45.9107 88.6861 46.6075 88.2371 46.6075H84.7864L84.1982 47.1302H93.5825C93.8957 47.1302 93.9907 47.4698 93.8666 47.6753H94.1918C94.7901 47.6753 94.7912 48.6055 94.1918 48.6055H92.0988C91.654 48.6055 91.5397 48.0915 91.7562 47.8276H86.1359C86.1359 48.0015 86.0236 48.1759 85.7987 48.1759H85.6252C85.4011 48.1759 85.2888 48.0015 85.2888 47.8276H83.4134L80.453 50.4556C80.4178 50.7287 80.1993 50.8713 79.9705 50.8841L77.1334 53.4026H81.3924C81.8403 53.4026 81.8414 54.0997 81.3924 54.0997H76.348L75.8079 54.5793C76.1705 54.6515 76.5332 54.7289 76.8908 54.7756C77.3499 54.8354 77.3555 55.566 76.8908 55.5059C76.3317 55.4327 75.7771 55.3254 75.2158 55.2728C75.1166 55.2642 75.0347 55.2706 74.9436 55.2683C74.738 55.3589 74.5558 55.3567 74.4259 55.2837C73.9288 55.3346 73.4941 55.4553 72.9299 55.5079C71.6399 55.6284 70.4583 54.9394 69.2303 55.6387C68.8215 55.8715 68.4538 55.2407 68.8617 55.0078C69.8841 54.4259 70.8064 54.5779 71.9637 54.6213C72.394 54.6383 72.7955 54.5849 73.1926 54.5287C72.9883 54.5075 72.7816 54.4857 72.5935 54.4689C71.6097 54.3814 70.8428 54.0033 69.919 53.6997C68.7874 53.3282 67.61 53.3075 66.4309 53.3486C64.1981 53.4266 62.1023 54.0312 59.8977 54.3473C59.7578 54.3675 59.6181 54.3845 59.4781 54.4004C59.4138 54.545 59.2789 54.6556 59.0727 54.6556H56.5826C55.4171 54.8331 54.2934 55.194 53.1042 55.1627C52.8147 55.1554 52.7172 54.8544 52.8114 54.6556H40.001C39.4028 54.6556 39.4017 53.7246 40.001 53.7246L40.0044 53.7254ZM66.0534 43.7204H52.5635C51.9653 43.7204 51.9642 42.7904 52.5635 42.7904H66.0534C66.6516 42.7904 66.6525 43.7204 66.0534 43.7204ZM49.3076 43.4884V42.5573C49.3076 42.4299 49.3554 42.3351 49.4216 42.2619C49.4305 42.2513 49.4372 42.2395 49.4459 42.2297C49.4546 42.2211 49.4655 42.2152 49.4752 42.2082C49.5484 42.1397 49.6434 42.0919 49.7722 42.0919C49.8997 42.0919 49.9944 42.1397 50.0676 42.206C50.079 42.2138 50.0899 42.2205 50.1005 42.2303C50.1084 42.239 50.1142 42.2487 50.1221 42.2585C50.1891 42.3326 50.2377 42.4279 50.2377 42.5568V43.4878C50.2377 44.0866 49.307 44.0874 49.307 43.4878L49.3076 43.4884ZM47.803 43.4716C47.2352 43.6377 46.9916 42.7667 47.5381 42.5836C47.5624 42.5484 47.5839 42.5076 47.6071 42.4735C47.6987 42.3438 47.8091 42.2404 47.9519 42.1699C48.2347 42.0307 48.5417 42.0824 48.8426 42.0919C49.44 42.1107 49.4417 43.0415 48.8426 43.0222C48.7219 43.0183 48.6021 43.0046 48.4819 43.0018C48.4615 43.0018 48.3283 43.0183 48.3816 42.985C48.3146 43.0258 48.2578 43.1857 48.2022 43.2421C48.0902 43.3573 47.9566 43.4263 47.8024 43.4714L47.803 43.4716ZM92.5668 25.8054C91.9686 25.8054 91.9678 24.8743 92.5668 24.8743H94.1952C94.7934 24.8743 94.7945 25.8054 94.1952 25.8054H92.5668ZM64.9822 18.3224C64.9956 18.3012 65.0109 18.2808 65.0283 18.2623L64.7424 18.271L64.665 18.3395L64.9822 18.3224ZM88.3807 36.2755H91.8104C91.8663 36.2039 91.9538 36.155 92.0725 36.155H94.8585C94.8996 36.155 94.9331 36.1667 94.9658 36.1768L95.3832 35.8067H90.6786C90.2307 35.8067 90.2301 35.1096 90.6786 35.1096H95.7297C95.8602 35.1096 95.9485 35.1717 96.0033 35.2564L96.9527 34.4125H92.4204C92.1963 34.4125 92.1958 34.0642 92.4204 34.0642H97.2972C97.3117 34.0642 97.3235 34.0695 97.3366 34.0721L98.1304 33.3668H84.7568C84.3089 33.3668 84.3083 32.6706 84.7568 32.6706H94.6965C94.6252 32.533 94.69 32.32 94.8929 32.32H98.8465C98.9876 32.32 99.0622 32.4229 99.0706 32.5325L99.7001 31.9734H95.73C95.5053 31.9734 95.5053 31.6252 95.73 31.6252H99.91C99.9647 31.6252 100.006 31.6464 100.034 31.6777L100.289 31.4507H97.6456C97.1977 31.4507 97.1969 30.7536 97.6456 30.7536H100.781C100.87 30.7536 100.935 30.7858 100.989 30.8302L102.156 29.7932H101.377C101.258 29.7932 101.257 29.6082 101.377 29.6082H102.365L102.84 29.1853H100.08C100.006 29.2523 99.9058 29.2948 99.7775 29.2948C99.6495 29.2948 99.5487 29.2523 99.4755 29.1853H96.2522C95.8035 29.1853 95.8026 28.489 96.2522 28.489H99.4593C99.5339 28.4132 99.6398 28.364 99.7775 28.364C99.915 28.364 100.021 28.4132 100.095 28.489H103.393C103.464 28.489 103.52 28.5102 103.568 28.5399L104.018 28.1399H99.5607C99.3363 28.1399 99.3363 27.7916 99.5607 27.7916H104.41L104.803 27.4433H101.128C100.68 27.4433 100.679 26.7462 101.128 26.7462H104.832L104.243 26.2235H100.842C101.024 26.4949 100.902 26.9676 100.475 26.9676C100.048 26.9676 99.9253 26.4946 100.107 26.2235H97.4707C97.0228 26.2235 97.022 25.5264 97.4707 25.5264H103.458L103.088 25.1985H101.846C101.816 25.2776 101.747 25.3397 101.637 25.3397H94.8926C94.5936 25.3397 94.5928 24.8734 94.8926 24.8734H101.637C101.767 24.8734 101.84 24.9607 101.858 25.0596H102.932L102.28 24.4807H99.3866C99.162 24.4807 99.162 24.1322 99.3866 24.1322H99.5305C99.5224 23.9438 99.6378 23.7503 99.8801 23.7503C100.122 23.7503 100.237 23.9438 100.229 24.1322H101.888L101.103 23.4351H95.5548C95.2986 23.4351 95.1885 23.2072 95.2254 23.0121H92.1016C91.8026 23.0121 91.8015 22.5473 92.1016 22.5473H98.1483C98.2802 22.5473 98.3542 22.6379 98.3699 22.7388H100.318L99.9608 22.4218H96.1371C96.048 22.4218 96.048 22.2829 96.1371 22.2829H97.7912C97.6208 22.0875 97.7037 21.6931 98.0415 21.6931H99.0376C99.0885 21.6931 99.1312 21.704 99.1706 21.7199L98.8144 21.403H95.8596C95.8381 21.403 95.8219 21.3951 95.8107 21.3828H95.4034C95.4542 21.491 95.4903 21.6084 95.5014 21.7426C95.5408 22.2105 94.8113 22.2085 94.7716 21.7426C94.7616 21.6255 94.6783 21.5022 94.5797 21.3828H89.5433C89.2432 21.3828 89.2432 20.9177 89.5433 20.9177H94.2307C94.2002 20.811 94.229 20.712 94.2885 20.6343C94.2667 20.6376 94.2491 20.6474 94.2243 20.6474C93.754 20.6474 93.7537 19.9171 94.2243 19.9171C94.5531 19.9171 94.6467 20.2726 94.5146 20.4873C94.6526 20.4529 94.8071 20.4895 94.9041 20.6458C94.9421 20.707 94.9851 20.7643 95.0273 20.8207H98.1586L97.7658 20.4725H95.7286C95.2799 20.4725 95.2787 19.7753 95.7286 19.7753H96.9806L96.7845 19.6015H90.3296C89.8814 19.6015 89.8806 18.9044 90.3296 18.9044H95.9991L95.0083 18.025C94.6506 18.0116 94.2919 17.9901 93.9351 17.9959L93.9253 18.0057C93.7261 18.205 93.4768 18.1757 93.3036 18.0423C93.2136 18.0549 93.1242 18.0706 93.0345 18.0901C92.4128 18.2246 91.8376 18.2165 91.1999 18.2075C91.0231 18.2056 90.9912 17.9945 91.0932 17.904C90.8568 17.8864 90.7557 17.677 90.7794 17.4878C90.7467 17.4738 90.7129 17.4621 90.6816 17.438C90.4481 17.2541 90.2706 17.0285 90.2234 16.7295C90.1499 16.2694 90.8524 16.0715 90.9267 16.5349C90.956 16.7197 91.0566 16.8102 91.1974 16.9212C91.3159 17.014 91.3363 17.1286 91.3069 17.2331C91.5227 17.3651 91.5243 17.7206 91.3081 17.8542C91.9275 17.8542 92.4947 17.793 93.098 17.7086C93.0879 17.6457 93.0915 17.5809 93.1111 17.5163H91.6956C91.6065 17.5163 91.6065 17.3774 91.6956 17.3774H93.1821C93.1977 17.3561 93.2156 17.3357 93.2357 17.3153L93.4059 17.1459H92.1583C92.0692 17.1459 92.0692 17.0073 92.1583 17.0073H93.5565C93.6269 16.9589 93.7009 16.9343 93.7741 16.9293L93.6015 16.7756H91.6034C91.5137 16.7756 91.5137 16.6367 91.6034 16.6367H93.4444L93.2539 16.4675C92.8599 16.474 92.4592 16.4913 92.0703 16.4544C91.6587 16.4142 91.2692 16.2546 90.851 16.2909C90.6277 16.3102 90.6291 15.9619 90.851 15.9426C91.2153 15.9113 91.547 16.0195 91.9032 16.0785C92.217 16.131 92.5439 16.1318 92.8694 16.126L92.3505 15.6653H89.8454C89.7565 15.6653 89.7565 15.5264 89.8454 15.5264H92.1938L91.7157 15.1015C91.4874 15.0915 91.2625 15.0834 91.0331 15.1337C90.8619 15.1717 90.4793 15.1594 90.357 15.2746C90.2921 15.3363 90.1935 15.2382 90.2589 15.1762C90.4399 15.0054 90.7157 15.0641 90.9485 15.0121C91.155 14.9668 91.355 14.959 91.557 14.9618L91.2692 14.706C91.2491 14.7155 91.2256 14.7222 91.1985 14.7231C90.6118 14.7404 90.0477 14.9478 89.4575 14.8975C89.2354 14.8785 89.2335 14.5297 89.4575 14.5487C89.8035 14.5789 90.1421 14.5196 90.4821 14.4626H88.6422C88.5531 14.4626 88.5531 14.3239 88.6422 14.3239H90.8381L90.6353 14.1434C90.5866 14.1607 90.5324 14.1705 90.4715 14.1705H88.844C88.6894 14.1705 88.5743 14.1084 88.4997 14.0162C88.1471 13.934 88.1678 13.3518 88.564 13.3302C88.635 13.2743 88.7283 13.2394 88.8442 13.2394H89.6176L88.8278 12.5384C88.8291 12.7721 88.6799 13.0066 88.3782 13.0066H88.3455C88.2916 13.0935 88.1977 13.1553 88.0639 13.1553H87.8901C87.5232 13.1553 87.4559 12.6888 87.6903 12.5194H85.8671C85.7783 12.5194 85.7783 12.3807 85.8671 12.3807H87.721C87.7749 12.2125 87.9163 12.0763 88.1463 12.0763H88.3072L88.0448 11.8432C88.087 11.8826 88.0504 11.9746 87.9761 11.9617C87.7492 11.9201 87.5355 11.872 87.3025 11.8731C87.0764 11.874 86.8481 11.8871 86.621 11.874C86.3022 11.8558 86.006 11.668 85.6827 11.6864C85.6229 11.6895 85.6039 11.6294 85.6243 11.5872H83.8839C83.436 11.5872 83.4352 10.8901 83.8839 10.8901H86.9714L86.403 10.3855C85.5626 10.4255 84.7269 10.5331 83.8839 10.5418C83.6598 10.544 83.6598 10.1958 83.8839 10.1932C84.602 10.1854 85.3156 10.1044 86.0309 10.0554L85.2245 9.33931C84.9484 9.38376 84.6861 9.4883 84.3997 9.49892C83.9962 9.51457 83.5908 9.49696 83.1868 9.49612C82.9627 9.49528 82.9627 9.14729 83.1868 9.14784C83.5897 9.14868 83.9976 9.17328 84.3997 9.15092C84.5732 9.14058 84.7392 9.09753 84.9054 9.05588L84.4192 8.62543H83.1002C83.0915 8.62962 83.0809 8.6327 83.0686 8.6327H81.7436C81.8437 8.83926 81.745 9.14812 81.4458 9.14812C81.1474 9.14812 81.0482 8.83926 81.1474 8.6327H80.4606V9.14812H81.3857C81.6098 9.14812 81.6106 9.4964 81.3857 9.4964H80.4606V10.037C80.8487 10.0627 81.2404 10.0926 81.6193 10.0174C81.6215 10.0023 81.6235 9.98751 81.6257 9.97214C81.6562 9.75188 81.9923 9.84524 81.9613 10.0649L81.9417 10.2094C81.9336 10.267 81.8724 10.3176 81.8199 10.3313C81.3731 10.447 80.9157 10.4101 80.4603 10.3841V11.2389H81.0965C81.3212 11.2389 81.3212 11.5872 81.0965 11.5872H80.4603V12.1099H82.7858C83.2337 12.1099 83.2345 12.807 82.7858 12.807H80.4603V13.0284H86.0521C86.1412 13.0284 86.1412 13.167 86.0521 13.167H80.4603V13.3509C80.7827 13.5304 82.2524 13.3822 82.7864 13.34C82.8034 13.3347 82.8188 13.33 82.8383 13.33H82.9529C83.1775 13.33 83.1775 13.6752 82.9529 13.678C82.1236 13.69 81.2812 13.8351 80.4603 13.6919V14.3751H83.3055C83.5296 14.3751 83.5302 14.7236 83.3055 14.7236H80.4603V14.8981H81.5637C82.0121 14.8981 82.013 15.5943 81.5637 15.5943H80.4603V15.8048H82.7864C82.8755 15.8048 82.8755 15.9434 82.7864 15.9434H80.4603V16.2917H82.4416C82.8895 16.2917 82.89 16.9888 82.4416 16.9888H80.4603V17.3371H82.6889C82.9129 17.3371 82.9129 17.6854 82.6889 17.6854H80.4603V17.9336H83.2485C83.3379 17.9336 83.3379 18.0725 83.2485 18.0725H80.4603V18.3996C81.5366 18.69 82.7305 18.5572 83.8294 18.5572C84.4494 18.5572 85.2357 18.3506 85.7487 18.7819C85.9202 18.9264 85.673 19.1716 85.502 19.0288C85.1574 18.7386 84.5422 18.8974 84.1233 18.9052C83.5799 18.9156 83.0362 18.9032 82.4927 18.9077C81.7833 18.9133 81.12 18.9105 80.4606 18.7523V19.3217H84.0608C84.1499 19.3217 84.1505 19.4603 84.0608 19.4603H80.4606V19.7765H87.4877C87.9356 19.7765 87.9376 20.4736 87.4877 20.4736H80.4606V20.8948H84.8498C84.9389 20.8948 84.9389 21.0337 84.8498 21.0337H82.5709C83.125 21.0824 83.6752 21.1629 84.2318 21.1707C84.3209 21.1715 84.3916 21.2009 84.4455 21.2453C84.6098 21.2123 84.7747 21.1816 84.9426 21.1721C85.0317 21.1676 85.0309 21.3065 84.9426 21.3116C84.8054 21.3188 84.6696 21.3406 84.5346 21.3669C84.626 21.574 84.5268 21.8714 84.2318 21.867C83.493 21.8572 82.7657 21.7127 82.0272 21.6931C81.8777 21.6886 81.7783 21.6084 81.7288 21.5039C81.6305 21.5209 81.5318 21.5427 81.4273 21.5631C81.1211 21.6229 80.7847 21.6076 80.4606 21.5958V21.9128H83.0437C83.1328 21.9128 83.1328 22.0517 83.0437 22.0517H80.4606V22.4679H83.5559C83.5165 22.2723 83.6252 22.0417 83.8836 22.0417H85.9736C86.4215 22.0417 86.4232 22.7388 85.9736 22.7388H83.8836C83.7596 22.7388 83.6713 22.6837 83.6159 22.6066H80.4606V23.9485H85.5637C85.6528 23.9485 85.6534 24.088 85.5637 24.088H80.4606V24.7815H85.7464C85.8356 24.7815 85.8356 24.9204 85.7464 24.9204H80.4606V25.8752H87.3673C87.8152 25.8752 87.816 26.5715 87.3673 26.5715H80.4606V27.0948H86.6067C86.6964 27.0948 86.6964 27.2342 86.6067 27.2342H80.4606V27.6641C80.9713 27.542 81.5237 27.6435 82.0426 27.6502C82.1323 27.6516 82.1323 27.7888 82.0426 27.7888H81.982C81.9786 27.7888 81.9764 27.7877 81.9725 27.7877C81.4807 27.7723 80.9423 27.6742 80.4606 27.8028V28.2058H83.2538C83.343 28.2058 83.343 28.3448 83.2538 28.3448H80.4606V28.8359C81.3684 28.8331 82.3066 28.7668 83.2094 28.8498C83.9619 28.9186 84.6394 29.0301 85.4016 29.0111C85.8504 29.0111 85.8495 29.6968 85.4016 29.7077H85.2767C84.6193 29.7155 84.0362 29.661 83.3818 29.5704C82.4338 29.4391 81.4189 29.5294 80.4609 29.5333V29.7742C80.4994 29.68 80.5905 29.5989 80.6863 29.5755C80.9227 29.5196 81.1532 29.5333 81.3932 29.5338C81.8411 29.5338 81.8423 30.2301 81.3932 30.2301H81.0971C81.0884 30.2301 81.0817 30.2259 81.073 30.2259C81.0644 30.2259 81.0563 30.2259 81.0484 30.2265C80.973 30.3592 80.8023 30.4325 80.6564 30.3925C80.5673 30.3676 80.5033 30.3123 80.4611 30.2421V31.2154C80.9811 31.3339 81.5153 31.3065 82.051 31.2883C82.0015 31.2526 81.9593 31.2084 81.9303 31.1586C81.79 30.9185 81.8959 30.6748 82.0968 30.5222C82.1591 30.4733 82.2225 30.4255 82.2851 30.3777C82.5343 30.1868 82.8892 30.3992 82.968 30.6558C82.9836 30.7036 82.9984 30.7514 83.0127 30.8C83.0806 31.0206 82.9889 31.1914 82.8411 31.285C83.621 31.3155 84.3944 31.4382 85.175 31.4505C86.5542 31.4717 87.9197 31.46 89.2745 31.2758H85.512C85.2874 31.2758 85.2874 30.9275 85.512 30.9275H90.676C90.9001 30.9275 90.901 31.2758 90.676 31.2758H90.4961C90.5034 31.3501 90.4698 31.4248 90.3743 31.4443C88.6517 31.7999 86.9364 31.8261 85.1748 31.7982C84.2801 31.7842 83.3944 31.626 82.4997 31.6246C81.8084 31.6232 81.1284 31.7065 80.4609 31.5707V31.9072H82.6062C82.6953 31.9072 82.6956 32.0458 82.6062 32.0458H80.4609V32.67H82.8389C83.063 32.67 83.0636 33.0183 82.8389 33.0183H80.4609V33.2956H82.3259C82.415 33.2956 82.415 33.4345 82.3259 33.4345H80.5324C80.595 33.5197 80.5718 33.6637 80.4609 33.7031V33.7154H82.9535C83.1775 33.7154 83.1781 34.0637 82.9535 34.0637H80.4609V34.5864H84.5201C84.9688 34.5864 84.9697 35.2835 84.5201 35.2835H81.6196C82.0683 35.2835 82.0688 35.98 81.6196 35.98H81.4458C80.9979 35.98 80.997 35.2835 81.4458 35.2835H80.4609V36.1544H82.6646C83.113 36.1544 83.1141 36.8516 82.6646 36.8516H80.4609V37.1998H82.4908C82.7149 37.1998 82.7149 37.5481 82.4908 37.5481H80.4609V37.9263C80.7732 37.9364 81.0985 37.9635 81.4008 37.8939C81.6081 37.8464 81.8104 37.855 82.0135 37.8408C81.999 37.8019 82.0194 37.7443 82.075 37.7371C82.2013 37.722 82.2561 37.7371 82.3175 37.8438C82.3388 37.8802 82.3203 37.9364 82.2759 37.9461C82.1555 37.971 82.0496 37.9716 81.9266 37.9716C81.7098 37.9702 81.5346 38.0191 81.3237 38.0535C81.0434 38.0988 80.7478 38.0747 80.4611 38.0652V38.2894C80.6156 38.2668 80.7827 38.2886 80.9384 38.2939C81.2038 38.3034 81.4757 38.3425 81.7389 38.3003C81.7104 38.2346 81.795 38.158 81.8467 38.2206C81.868 38.2463 81.8884 38.2715 81.9096 38.2975C81.9409 38.3361 81.9336 38.3998 81.8789 38.4135C81.5989 38.4837 81.3161 38.449 81.0317 38.4361C80.8774 38.4289 80.7157 38.4099 80.5623 38.4208C80.5274 38.423 80.4947 38.4305 80.4611 38.437V38.7682H82.4312C82.6553 38.7682 82.6559 39.1168 82.4312 39.1168H80.4611V39.4035H82.7858C82.8749 39.4035 82.8749 39.5425 82.7858 39.5425H80.4611V40.0118C80.4961 39.9995 80.5318 39.9883 80.5757 39.9883H80.9238C81.3717 39.9883 81.3726 40.6846 80.9238 40.6846H80.5757C80.5318 40.6846 80.4958 40.6737 80.4611 40.6611V40.859H85.2773C85.502 40.859 85.502 41.207 85.2773 41.207H80.4611V41.7532C80.4961 41.7414 80.5318 41.7297 80.5757 41.7297H81.0973C81.5461 41.7297 81.5469 42.4268 81.0973 42.4268H80.5757C80.5318 42.4268 80.4958 42.4159 80.4611 42.4033V43.4954C80.4961 43.4837 80.5318 43.4719 80.5757 43.4719H82.6947L82.419 43.196C82.1013 42.8785 82.5939 42.3846 82.9113 42.703C83.1435 42.935 83.3754 43.1672 83.6081 43.3992C83.631 43.4227 83.6411 43.4476 83.6556 43.4716H84.232C84.6808 43.4716 84.6816 44.1687 84.232 44.1687H80.5754C80.5315 44.1687 80.4955 44.157 80.4609 44.1453V45.388H84.5807C84.583 45.388 84.5838 45.3894 84.5858 45.3894L84.9009 45.1096C83.811 45.139 82.7003 44.8673 81.6196 44.865C81.3955 44.865 81.3955 44.5162 81.6196 44.5167C82.3418 44.5181 82.9783 44.5665 83.6861 44.6825C83.8473 44.7088 84.7506 44.8264 85.2686 44.7826L86.7459 43.4716H84.9887C84.7646 43.4716 84.764 43.1234 84.9887 43.1234H86.8448C86.9325 43.1234 86.9851 43.1773 87.0038 43.2421L87.7269 42.6004H83.5355C83.0876 42.6004 83.0859 41.9033 83.5355 41.9033H88.0633C88.1977 41.9033 88.2857 41.9681 88.3396 42.0559L89.8853 40.6835H85.7987C85.5746 40.6835 85.5746 40.3352 85.7987 40.3352H89.9795C90.0683 40.3352 90.1209 40.3914 90.139 40.4584L90.6696 39.9869H88.2374C87.7895 39.9869 87.7886 39.2898 88.2374 39.2898H91.198C91.2759 39.2898 91.336 39.3161 91.3863 39.3504L91.8476 38.9415H83.5355C83.0876 38.9415 83.0859 38.2444 83.5355 38.2444H86.5422C86.4866 37.9702 86.6397 37.6457 87.0018 37.6457C87.3631 37.6457 87.5165 37.9699 87.4612 38.2444H92.6328L93.4182 37.5473H91.4824C91.3095 37.6898 91.0287 37.6898 90.8557 37.5473H85.9736C85.7495 37.5473 85.7495 37.199 85.9736 37.199H90.704V36.972C90.704 36.8784 90.7322 36.8043 90.771 36.7392H88.3779C88.0789 36.7392 88.0789 36.2741 88.3779 36.2741L88.3807 36.2755ZM91.818 36.7406H91.5707C91.6084 36.8057 91.6378 36.8798 91.6378 36.9734V37.2004H93.4659C93.5724 37.2004 93.6263 37.2792 93.6319 37.3617L94.2058 36.8521H92.0725C91.9588 36.8521 91.8742 36.8074 91.818 36.7403V36.7406ZM112.57 56.0524H103.964C103.366 56.0524 103.365 55.1213 103.964 55.1213H112.57C113.168 55.1213 113.169 56.0524 112.57 56.0524ZM106.306 30.2312C106.305 30.049 106.396 29.8656 106.579 29.7938H103.73L103.237 30.2312H106.306ZM82.8791 59.0765C88.429 59.0765 94.1891 58.3193 99.6683 59.0941C100.259 59.1768 100.007 60.0738 99.4207 59.9908C94.0633 59.2336 88.4483 59.9919 83.039 60.0067C83.0359 60.0067 83.0339 60.0076 83.032 60.0076H82.8791C82.2801 60.0076 82.2787 59.0765 82.8791 59.0765ZM103.731 59.3096C104.33 59.3096 104.331 60.2407 103.731 60.2407H102.569C101.97 60.2407 101.969 59.3096 102.569 59.3096H103.731ZM98.3821 56.9829H97.0608C96.4623 56.9829 96.4615 56.0527 97.0608 56.0527H98.3821C98.9804 56.0527 98.9812 56.9829 98.3821 56.9829ZM119.779 23.7118H120.012C120.61 23.7118 120.611 24.6428 120.012 24.6428H119.779C119.181 24.6428 119.18 23.7118 119.779 23.7118ZM112.337 57.9137H114.197C114.796 57.9137 114.797 58.8448 114.197 58.8448H112.337C111.738 58.8448 111.738 57.9137 112.337 57.9137ZM78.8456 60.4724C78.2474 60.4724 78.2463 59.5422 78.8456 59.5422H79.7763C80.3748 59.5422 80.3754 60.4724 79.7763 60.4724H78.8456ZM83.1409 55.6029C83.3866 55.5515 83.6439 55.6762 83.7129 55.9286C83.776 56.1597 83.6349 56.449 83.3874 56.5007C83.2656 56.527 83.1449 56.5603 83.0239 56.5944C82.9685 56.61 82.9138 56.6274 82.8579 56.6452C82.7772 56.7162 82.676 56.7615 82.5656 56.7503C82.5218 56.7453 82.4584 56.7453 82.4176 56.728C82.206 56.6402 82.1001 56.508 82.0756 56.2796C82.0247 55.7991 82.8045 55.6742 83.1407 55.6032L83.1409 55.6029ZM95.1262 46.2805C95.7244 46.2805 95.7255 47.2104 95.1262 47.2104C94.5271 47.2104 94.526 46.2805 95.1262 46.2805ZM101.173 40.2304C101.771 40.2304 101.772 41.1614 101.173 41.1614C100.574 41.1614 100.574 40.2304 101.173 40.2304ZM156.758 57.4483H146.99C146.392 57.4483 146.391 56.5172 146.99 56.5172H156.758C157.358 56.5172 157.358 57.4483 156.758 57.4483ZM161.642 54.8882C162.242 54.8882 162.243 55.8193 161.642 55.8193H159.317C158.718 55.8193 158.717 54.8882 159.317 54.8882H161.642ZM134.199 48.1412H136.06C136.658 48.1412 136.659 49.0723 136.06 49.0723H134.199C133.6 49.0723 133.599 48.1412 134.199 48.1412ZM131.408 48.6063C130.809 48.6063 130.808 47.6761 131.408 47.6761H132.338C132.937 47.6761 132.938 48.6063 132.338 48.6063H131.408ZM128.741 31.3728C128.363 31.4888 128.134 31.1405 128.181 30.8375C128.108 30.6415 128.211 30.39 128.383 30.2894C128.621 30.149 128.866 30.2566 129.019 30.4562C129.067 30.5197 129.114 30.582 129.163 30.6446C129.353 30.8939 129.141 31.2498 128.885 31.328C128.837 31.3434 128.789 31.3582 128.741 31.3728H128.741ZM165.288 60.9381H169.55C170.149 60.9381 170.149 61.8683 169.55 61.8683H165.288C164.69 61.8683 164.689 60.9381 165.288 60.9381ZM140.935 48.3103C140.824 48.2421 140.757 48.127 140.735 48.0023H138.482C138.509 48.0468 138.526 48.096 138.534 48.1482C138.534 48.1505 138.535 48.1527 138.535 48.1555C138.541 48.2083 138.54 48.26 138.526 48.3109C138.527 48.3109 138.527 48.3103 138.528 48.3103H140.936H140.935ZM142.033 46.745H140.632C140.612 46.7845 140.586 46.8208 140.555 46.8529H142.154L142.033 46.745ZM146.758 59.5419C146.459 59.5419 146.458 59.0759 146.758 59.0759H151.176C151.477 59.0759 151.477 59.5419 151.176 59.5419H146.758ZM138.386 60.7052H155.363C155.663 60.7052 155.663 61.1701 155.363 61.1701H138.386C138.087 61.1701 138.085 60.7052 138.386 60.7052ZM131.64 59.0762H135.129C135.428 59.0762 135.429 59.5422 135.129 59.5422H131.64C131.341 59.5422 131.341 59.0762 131.64 59.0762ZM134.376 35.3444C134.659 35.3908 134.91 35.5345 135.191 35.5862C135.485 35.6387 135.361 36.0882 135.067 36.0345C134.821 35.9895 134.602 35.8668 134.36 35.8132C134.08 35.7528 133.783 35.8034 133.501 35.8101C133.201 35.8157 133.201 35.3508 133.501 35.3441C133.791 35.3383 134.088 35.2961 134.376 35.3441L134.376 35.3444ZM97.6842 26.7364C97.3003 26.7364 91.6763 26.5276 91.6288 26.7976C91.5763 27.092 91.1281 26.9673 91.1807 26.6738C91.1913 26.6095 91.2033 26.5452 91.215 26.4809C91.2284 26.403 91.3044 26.3398 91.3776 26.3194C92.1787 26.091 93.1114 26.2705 93.9368 26.2705C95.186 26.2705 96.4352 26.2705 97.6845 26.2705C97.9837 26.2705 97.9845 26.7367 97.6845 26.7367L97.6842 26.7364ZM98.7865 32.7852H98.5984C98.6255 32.8184 98.6456 32.8573 98.659 32.8984L98.7865 32.7852ZM96.9778 21.1715C96.9753 21.2045 96.9669 21.2367 96.9524 21.2657H98.6593L98.5529 21.1715H96.9778ZM95.1265 28.3643H89.0789C88.78 28.3643 88.78 27.8992 89.0789 27.8992H95.1265C95.4254 27.8992 95.4254 28.3643 95.1265 28.3643ZM96.5221 50.2351H102.802C103.101 50.2351 103.101 50.7002 102.802 50.7002H96.5221C96.222 50.7002 96.222 50.2351 96.5221 50.2351ZM105.593 44.884C105.292 44.884 105.292 44.4181 105.593 44.4181H110.244C110.543 44.4181 110.544 44.884 110.244 44.884H105.593ZM104.429 57.6797H97.6847C97.3858 57.6797 97.3847 57.2149 97.6847 57.2149H104.429C104.728 57.2149 104.729 57.6797 104.429 57.6797ZM114.002 37.9039H114.076L113.95 37.852L114.002 37.9039ZM114.527 32.2776C114.487 32.2476 114.46 32.2043 114.447 32.1568C114.202 32.1792 113.987 32.2334 113.785 32.2714V32.2773H114.527V32.2776ZM120.003 27.1864C120.005 27.2172 120.001 27.2485 119.993 27.2778L120.107 27.2784L120.003 27.1867V27.1864ZM119.873 27.4159C119.846 27.4274 119.814 27.4338 119.779 27.4338H119.538C119.616 27.5546 119.595 27.6876 119.526 27.7916H120.685L120.264 27.4184L119.872 27.4159H119.873ZM92.3357 61.6357C93.4838 61.5946 94.6227 61.418 95.7716 61.4026C96.7881 61.3892 97.744 61.2086 98.7459 61.1502C100.882 61.0244 102.98 60.684 105.127 60.7047C105.426 60.7077 105.427 61.1726 105.127 61.1695C103.927 61.158 102.824 61.2282 101.638 61.418C100.622 61.5812 99.6149 61.5334 98.6057 61.6405C96.5339 61.8619 94.4307 62.0265 92.3357 62.1006C92.0354 62.1112 92.0368 61.6461 92.3357 61.6355V61.6357ZM89.5447 60.4718H94.4291C94.728 60.4718 94.728 60.9378 94.4291 60.9378H89.5447C89.2446 60.9378 89.2446 60.4718 89.5447 60.4718ZM106.522 62.3337C107.097 62.3077 107.646 62.1271 108.217 62.0989C108.534 62.083 108.776 62.0511 109.073 61.9421C109.245 61.8786 109.358 61.856 109.546 61.868C109.843 61.8884 109.845 62.3535 109.546 62.334C109.309 62.3186 109.142 62.4472 108.927 62.5075C108.695 62.5718 108.455 62.5495 108.217 62.5651C107.647 62.6015 107.097 62.7739 106.522 62.7991C106.223 62.8128 106.224 62.3477 106.522 62.334V62.3337ZM50.7038 49.0717H64.8913C65.1903 49.0717 65.1903 49.5369 64.8913 49.5369H50.7038C50.4048 49.5369 50.404 49.0717 50.7038 49.0717ZM40.0849 33.2497C39.7859 33.2497 39.7848 32.7849 40.0849 32.7849H46.0525C46.3517 32.7849 46.3517 33.2497 46.0525 33.2497H40.0849ZM19.5388 55.5859H23.9571C24.2561 55.5859 24.2575 56.0518 23.9571 56.0518H19.5388C19.2387 56.0518 19.2387 55.5859 19.5388 55.5859ZM68.6117 57.4477H60.007C59.708 57.4477 59.7066 56.9818 60.007 56.9818H68.6117C68.912 56.9818 68.912 57.4477 68.6117 57.4477ZM144.926 56.4943H139.938C139.354 56.4943 139.354 55.5864 139.938 55.5864H144.926C145.51 55.5864 145.511 56.4943 144.926 56.4943ZM145.834 55.1333H143.113C142.53 55.1333 142.528 54.2257 143.113 54.2257H145.834C146.417 54.2257 146.418 55.1333 145.834 55.1333ZM133.588 32.4483V32.9017C133.588 33.4856 132.681 33.4867 132.681 32.9017V32.4483C132.681 31.8644 133.588 31.8636 133.588 32.4483ZM132.499 40.2591C132.623 40.3573 132.675 40.5205 132.656 40.6756H135.198L134.729 40.2591H132.5H132.499ZM129.303 40.1205C129.092 40.0375 129.028 39.8298 129.073 39.6386H128.472C128.11 39.6386 128.04 39.1844 128.263 39.01H127.906C127.583 39.0838 127.261 39.1559 126.931 39.1917C127.191 39.2711 127.444 39.3756 127.707 39.4589C127.71 39.4595 127.712 39.4625 127.715 39.4631C127.814 39.4916 127.883 39.5567 127.921 39.6383C127.927 39.6506 127.93 39.6638 127.935 39.6772C127.943 39.7021 127.949 39.7258 127.953 39.7515C127.956 39.7719 127.957 39.791 127.956 39.8105C127.956 39.832 127.954 39.8508 127.951 39.8712C127.947 39.8938 127.944 39.9151 127.937 39.936C127.933 39.948 127.927 39.9573 127.922 39.9682C127.897 40.0288 127.86 40.0822 127.809 40.1202H129.303L129.303 40.1205ZM130.92 39.6386C131.35 39.789 131.773 39.9578 132.2 40.1205H134.572L134.03 39.6386H130.92ZM80.4642 5.11163L82.5058 6.92429C82.2686 6.94386 81.9987 6.88767 81.7973 6.88404C81.5726 6.87985 81.5732 7.22868 81.7973 7.2326C82.1228 7.23819 82.5089 7.31506 82.826 7.20828L84.0309 8.27771H82.4941C82.3636 8.27771 82.3097 8.39622 82.3307 8.49545H81.6176C81.5712 8.46946 81.5153 8.45241 81.4491 8.45241C81.3826 8.45241 81.3273 8.46946 81.2798 8.49545H80.4642V8.17401C80.5436 8.17066 80.6271 8.18491 80.7093 8.17345C80.861 8.15221 80.9968 8.08792 81.1538 8.07841C81.5184 8.05717 81.8928 8.07618 82.26 8.07758C82.2608 8.07758 82.2614 8.07841 82.263 8.07841H82.3295C82.4187 8.07841 82.4187 7.9395 82.3295 7.9395C81.8967 7.94061 81.4139 7.88192 80.9867 7.95794C80.8034 7.99009 80.6469 8.01608 80.4642 8.02922V7.58115H81.1004C81.3251 7.58115 81.3251 7.23232 81.1004 7.23232H80.4642V6.88823C80.7478 6.91004 81.0303 6.95168 81.3158 6.96342C81.3226 6.96566 81.3298 6.9679 81.3385 6.9679H81.3991C81.4888 6.9679 81.488 6.82981 81.3991 6.82898C81.0851 6.8245 80.7757 6.77279 80.4642 6.74931V6.52598C80.5377 6.50054 80.6481 6.52039 80.7065 6.52905C80.9146 6.56036 81.0093 6.26044 80.8297 6.20118C80.8188 6.18944 80.8034 6.18162 80.7833 6.18078C80.764 6.18078 80.7464 6.18301 80.7282 6.18385C80.638 6.17351 80.5483 6.17071 80.4642 6.18078V5.11135V5.11163ZM133.136 56.9474H136.309C136.893 56.9474 136.894 57.855 136.309 57.855H133.136C132.552 57.855 132.551 56.9474 133.136 56.9474ZM133.922 56.0566C134.877 55.9199 135.793 55.6197 136.764 55.5864C137.347 55.5672 137.346 56.4747 136.764 56.4943C135.876 56.5245 135.038 56.8071 134.163 56.932C133.592 57.0125 133.345 56.1393 133.922 56.0566H133.922ZM89.395 45.6108H90.692C90.8107 45.6108 90.8107 45.7961 90.692 45.7961H89.395C89.2751 45.7961 89.2751 45.6108 89.395 45.6108ZM97.0533 14.9017H100.513C100.632 14.9017 100.632 15.087 100.513 15.087H97.0533C96.9345 15.087 96.9345 14.9017 97.0533 14.9017ZM71.2132 37.0193H58.9844C58.8653 37.0193 58.8653 36.8342 58.9844 36.8342H71.2132C71.3331 36.8342 71.3331 37.0193 71.2132 37.0193ZM55.3719 44.8044C55.2517 44.8044 55.2517 44.6193 55.3719 44.6193C55.4906 44.6193 55.4906 44.8044 55.3719 44.8044ZM53.4258 50.9207H41.1969C41.0784 50.9207 41.077 50.7357 41.1969 50.7357H53.4258C53.5448 50.7357 53.5459 50.9207 53.4258 50.9207ZM49.5347 56.5748C49.6546 56.5748 49.6546 56.7604 49.5347 56.7604H44.2539C44.1349 56.7604 44.1349 56.5748 44.2539 56.5748H49.5347ZM72.6036 25.6192H60.6522C60.5323 25.6192 60.5323 25.4342 60.6522 25.4342H72.6036C72.7223 25.4342 72.7223 25.6192 72.6036 25.6192ZM43.1421 53.7011H28.6906C28.5707 53.7011 28.5707 53.5158 28.6906 53.5158H43.1421C43.2623 53.5158 43.2623 53.7011 43.1421 53.7011ZM78.2354 45.6888C77.6075 45.6888 77.607 44.7138 78.2354 44.7138C78.8615 44.7138 78.8629 45.6888 78.2354 45.6888ZM76.0426 45.6888C75.4153 45.6888 75.4142 44.7138 76.0426 44.7138C76.6693 44.7138 76.6701 45.6888 76.0426 45.6888ZM77.7481 41.058C78.3745 41.058 78.3756 42.033 77.7481 42.033C77.1202 42.033 77.1197 41.058 77.7481 41.058ZM104.303 22.5356C104.929 22.5356 104.93 23.5105 104.303 23.5105C103.675 23.5105 103.674 22.5356 104.303 22.5356ZM94.307 17.5171C94.2991 17.5588 94.284 17.6007 94.2623 17.6418C94.3732 17.6454 94.4838 17.6507 94.5948 17.6563L94.4221 17.5023C94.4118 17.511 94.3986 17.5168 94.3818 17.5168H94.3072L94.307 17.5171ZM92.8526 14.2493V14.0056C92.8526 13.3789 93.8267 13.3769 93.8267 14.0056V14.2493C93.8267 14.876 92.8526 14.8779 92.8526 14.2493ZM121.356 54.4622C121.982 54.4622 121.984 55.4372 121.356 55.4372H121.112C120.485 55.4372 120.484 54.4622 121.112 54.4622H121.356ZM104.059 37.6462C104.685 37.6462 104.687 38.6209 104.059 38.6209C103.431 38.6209 103.431 37.6462 104.059 37.6462ZM108.688 37.89C108.06 37.89 108.059 36.915 108.688 36.915C109.314 36.915 109.316 37.89 108.688 37.89ZM154.001 53.4875C154.628 53.4875 154.629 54.4622 154.001 54.4622C153.374 54.4622 153.373 53.4875 154.001 53.4875ZM135.242 33.0155C135.869 33.0155 135.87 33.9902 135.242 33.9902C134.615 33.9902 134.614 33.0155 135.242 33.0155ZM25.8895 80.4648C25.8895 79.4093 25.778 78.8277 25.778 78.8277C25.778 78.8277 22.3731 78.7494 20.1264 78.6999C19.6606 78.6876 15.6455 78.8277 14.6975 78.9143C14.3594 78.9473 14.2482 79.1494 14.244 79.2196C14.0585 85.1705 14.2359 91.0512 14.1532 96.9317C14.1493 97.1997 14.2605 97.3071 14.5365 97.2576C14.8084 97.2123 15.2211 97.3196 15.5838 97.1176C15.9464 96.9113 16.0453 97.0474 15.9917 96.1896C15.6743 91.1253 15.0518 85.4715 14.8375 80.2426C14.8291 80.0447 14.586 79.8138 15.035 79.723C16.4035 79.451 20.5838 79.228 21.5687 79.2816C22.8425 79.3518 22.8551 79.496 22.9085 80.1269C23.3619 85.6736 23.0322 91.319 23.1557 96.8699C23.1599 97.0882 23.2711 97.1545 23.4567 97.171C23.8937 97.2204 24.6358 97.138 25.0149 97.171C25.7735 97.2411 25.9051 96.4615 25.9012 95.971C25.8434 91.8593 25.8641 83.327 25.8889 80.4651L25.8895 80.4648ZM43.0396 5.80902C43.0516 5.76625 43.2724 5.35676 43.3232 5.2648C43.711 4.56741 44.1595 3.9016 44.6786 3.29421C45.131 2.76425 45.6364 2.27984 46.1922 1.85973C46.6934 1.48015 47.2335 1.15367 47.8027 0.887852C48.3322 0.64076 48.8846 0.447335 49.4509 0.30534C49.984 0.17257 50.528 0.0850811 51.0757 0.0392404C51.5873 -0.00408465 52.102 -0.0105135 52.6158 0.0149225C53.0832 0.0375633 53.549 0.0875968 54.0112 0.160271C54.4115 0.222883 54.8086 0.303384 55.2014 0.400376C55.5124 0.477243 55.8212 0.564452 56.126 0.662842C56.3275 0.727969 56.5275 0.797569 56.7242 0.873877C56.7863 0.897636 56.8832 0.941799 56.9357 0.960527C45.2866 -0.350406 44.5473 8.17569 44.5473 8.17569C44.5473 8.17569 39.1377 4.46874 33.0161 11.7404C33.0862 11.5545 33.1712 11.306 33.2382 11.1483C33.4517 10.6466 33.7107 10.1625 34.0046 9.70352C34.9108 8.28833 36.1804 7.11101 37.7144 6.40886C38.5135 6.04381 39.3696 5.81042 40.2405 5.69917C40.7381 5.63572 41.2394 5.61196 41.7406 5.62091C41.7401 5.62035 42.7504 5.67905 43.039 5.80958L43.0396 5.80902ZM147.955 106.578C139.995 106.549 135.485 106.549 134.43 106.578C134.054 106.61 133.865 106.767 133.865 107.056V109.316C134.314 108.813 134.726 108.396 135.101 108.062C135.518 107.637 136.157 107.369 137.01 107.262C137.278 107.216 137.938 107.196 138.984 107.196C139.764 107.179 140.151 107.74 140.151 108.883C140.151 109.006 140.151 109.18 140.151 109.406C140.151 109.637 140.151 109.794 140.151 109.885V124.784H141.981C142.48 124.739 142.727 124.434 142.727 123.869V109.275C142.727 108.528 142.773 108.041 142.864 107.811C143.033 107.415 143.416 107.209 144.018 107.192C145.584 107.18 146.611 107.27 147.093 107.473C147.74 107.778 148.367 108.355 148.969 109.201V107.279C148.923 106.813 148.585 106.578 147.954 106.578L147.955 106.578ZM131.165 106.557C130.88 106.557 130.682 106.681 130.563 106.932C130.563 106.949 130.505 107.159 130.39 107.559C129.94 110.083 129.516 112.508 129.116 114.833C128.98 115.534 128.757 116.355 128.44 117.291C128.172 118.079 127.904 118.871 127.64 119.675C124.268 111.745 122.524 107.646 122.409 107.377C122.157 106.829 121.84 106.557 121.456 106.557H119.222C123.645 117.151 125.888 122.57 125.954 122.805C126.074 123.304 125.929 123.84 125.529 124.409C124.528 125.795 123.526 126.553 122.524 126.69C121.927 126.789 121.312 126.661 120.686 126.302C120.059 125.943 119.606 125.477 119.321 124.912V126.789C119.321 127.222 119.395 127.506 119.548 127.642C119.833 127.89 120.249 128.018 120.797 128.018C121.234 128.018 121.708 127.944 122.227 127.791C123.295 127.474 124.21 126.913 124.981 126.113C125.979 125.057 126.824 123.721 127.508 122.1C128.308 120.162 128.902 118.64 129.285 117.539L133.14 106.557H131.165L131.165 106.557ZM117.581 106.578C109.621 106.549 105.111 106.549 104.056 106.578C103.681 106.61 103.491 106.767 103.491 107.056V109.316C103.941 108.813 104.353 108.396 104.728 108.062C105.144 107.637 105.783 107.369 106.637 107.262C106.905 107.216 107.564 107.196 108.611 107.196C109.391 107.179 109.778 107.74 109.778 108.883C109.778 109.006 109.778 109.18 109.778 109.406C109.778 109.637 109.778 109.794 109.778 109.885V124.784H111.608C112.107 124.739 112.354 124.434 112.354 123.869V109.275C112.354 108.528 112.4 108.041 112.49 107.811C112.659 107.415 113.043 107.209 113.645 107.192C115.211 107.18 116.237 107.27 116.72 107.473C117.367 107.778 117.994 108.355 118.595 109.201V107.279C118.55 106.813 118.212 106.578 117.581 106.578L117.581 106.578ZM99.4889 106.495C98.9818 106.495 98.5612 106.763 98.2315 107.295C98.0667 107.538 95.1933 112.85 89.6118 123.23L89.9993 107.786C90.0734 106.99 89.9085 106.557 89.5003 106.495H88.5274L89.1169 124.842H90.8113C91.1904 124.842 91.545 124.591 91.875 124.083C92.0234 123.824 94.5749 119.135 99.5177 110.013L100.581 123.787C100.627 124.351 100.808 124.706 101.121 124.842V106.495H99.4889ZM85.4276 106.578C77.4675 106.549 72.9576 106.549 71.9025 106.578C71.5273 106.61 71.3376 106.767 71.3376 107.056V109.316C71.7872 108.813 72.1993 108.396 72.5742 108.062C72.9906 107.637 73.6296 107.369 74.4829 107.262C74.7509 107.216 75.4105 107.196 76.4575 107.196C77.2367 107.179 77.6243 107.74 77.6243 108.883C77.6243 109.006 77.6243 109.18 77.6243 109.406C77.6243 109.637 77.6243 109.794 77.6243 109.885V124.784H79.4544C79.9532 124.739 80.2004 124.434 80.2004 123.869V109.275C80.2004 108.528 80.246 108.041 80.3365 107.811C80.5056 107.415 80.8889 107.209 81.4908 107.192C83.0574 107.18 84.0837 107.27 84.5659 107.473C85.213 107.778 85.8398 108.355 86.4416 109.201V107.279C86.3963 106.813 86.0583 106.578 85.4273 106.578L85.4276 106.578ZM69.9609 108.429C69.8866 108.128 69.8042 107.91 69.7137 107.774C69.2602 107.217 68.275 106.792 66.7497 106.507C65.7729 106.326 64.6723 106.371 63.4476 106.644C62.3635 106.883 61.4071 107.3 60.5787 107.885C59.5069 108.64 58.6991 109.695 58.159 111.052C57.4786 112.788 57.1324 114.516 57.1159 116.236C57.1037 117.003 57.1777 117.758 57.3428 118.496C57.6312 119.824 58.093 120.941 58.7362 121.857C59.3753 122.768 60.2202 123.502 61.2671 124.063C62.3144 124.62 63.3985 124.9 64.5114 124.9C65.4636 124.9 66.3457 124.686 67.1579 124.265C67.8383 123.902 68.5061 123.444 69.1697 122.884C69.5611 122.537 69.7508 122.318 69.7385 122.228C69.7385 122.17 69.7058 122.137 69.6477 122.137C69.586 122.137 69.3306 122.306 68.8771 122.636C68.4857 122.925 68.1599 123.135 67.9042 123.271C67.3147 123.585 66.6594 123.746 65.9377 123.746C64.6103 123.746 63.4725 123.3 62.5245 122.41C61.9349 121.865 61.4694 121.234 61.1188 120.508C60.8964 120.013 60.7066 119.37 60.5541 118.587C60.3272 117.304 60.2903 115.894 60.4426 114.355C60.5457 113.316 60.7726 112.388 61.1185 111.576C61.7368 110.095 62.4253 108.965 63.1797 108.182C63.8433 107.485 64.6388 107.139 65.5748 107.139C65.9827 107.139 66.3828 107.217 66.7743 107.365C67.3926 107.609 68.0109 108.12 68.6293 108.904C68.8972 109.238 69.3591 109.914 70.0062 110.941C70.035 110.776 70.0596 110.479 70.0763 110.059C70.1051 109.366 70.0682 108.821 69.9609 108.43V108.429ZM52.107 106.503C51.5918 106.441 51.3238 106.846 51.2911 107.712V115.609H43.3556C42.7825 115.728 42.4735 115.386 42.428 114.582V107.576C42.428 106.862 42.1271 106.503 41.5213 106.503H39.827V124.69H41.5914C42.1189 124.69 42.3953 124.401 42.428 123.819V116.269H50.1369C50.8787 116.269 51.2788 116.611 51.3364 117.296V123.96C51.3816 124.446 51.6331 124.69 52.0824 124.69H53.9374V106.504H52.107V106.503ZM34.2413 106.495C33.7342 106.495 33.3137 106.763 32.984 107.295C32.8191 107.538 29.9457 112.85 24.3642 123.23L24.7517 107.786C24.8258 106.99 24.6609 106.557 24.2527 106.496H23.2798L23.8694 124.843H25.5637C25.9428 124.843 26.2974 124.591 26.6274 124.084C26.7758 123.824 29.3273 119.135 34.2701 110.013L35.3338 123.787C35.379 124.352 35.5607 124.706 35.8739 124.842V106.495H34.2413ZM148.664 76.9641L153.231 77.2361C153.578 77.2649 153.759 77.0919 153.776 76.7165C153.776 76.5474 153.788 76.2257 153.821 75.7432L147.353 76.3288C147.155 76.3288 147.052 76.4155 147.036 76.5804C147.036 76.7741 147.58 76.9021 148.664 76.9639V76.9641ZM155.09 78.8322C154.583 78.8322 154.163 79.0999 153.833 79.6321C153.668 79.8753 150.795 85.187 145.213 95.5668L145.601 80.123C145.675 79.3272 145.51 78.8939 145.102 78.8324H144.129L144.719 97.1793H146.413C146.792 97.1793 147.147 96.9278 147.477 96.4204C147.625 96.1608 150.176 91.4719 155.119 82.3499L156.183 96.1236C156.228 96.6885 156.41 97.0432 156.723 97.1791V78.8322H155.09ZM140.44 78.8981C140.077 78.696 139.669 78.8034 139.393 78.7539C139.117 78.7083 139.005 78.8115 139.01 79.0795C139.092 84.9069 138.828 91.113 139.005 97.0144C139.01 97.1053 139.084 97.1793 139.178 97.1793H139.702C139.83 97.1793 139.937 97.0804 139.941 96.9524C140.16 91.7357 140.535 84.849 140.852 79.8261C140.906 78.9683 140.807 79.1002 140.44 78.8981ZM135.468 87.3809C134.863 86.9272 134.219 86.6013 133.539 86.4076C132.385 86.0901 130.674 85.9294 128.419 85.9294V79.2981C128.419 79.0423 128.374 78.8322 128.118 78.8322H126.457C126.094 78.8322 125.801 79.129 125.801 79.4918V96.4288C125.801 96.9113 126.613 97.1793 127.232 97.2246C129.462 97.2246 130.476 97.1832 131.276 97.105C134.561 96.8492 136.602 95.7359 137.401 93.7561C137.657 93.1375 137.785 92.515 137.785 91.8797C137.785 90.8857 137.492 89.9125 136.898 88.9599C136.462 88.2837 135.983 87.7557 135.468 87.3806L135.468 87.3809ZM134.145 94.6844C133.436 95.5296 132.554 96.0864 131.499 96.3587C130.988 96.4948 130.262 96.565 129.33 96.565C128.666 96.5029 128.366 96.1485 128.423 95.5008V86.5851C128.831 86.6016 129.305 86.6265 129.85 86.6553C131.144 86.7293 132.187 87.0306 132.97 87.5584C134.417 88.5563 135.143 89.9709 135.143 91.8143C135.143 92.9606 134.809 93.9174 134.145 94.6844ZM120.026 78.8405C119.511 78.7785 119.243 79.1827 119.21 80.0489V87.9461H111.275C110.702 88.0654 110.393 87.7233 110.347 86.9191V79.9128C110.347 79.1992 110.046 78.8405 109.44 78.8405H107.746V97.0267H109.51C110.038 97.0267 110.314 96.738 110.347 96.1566V88.6057H118.056C118.798 88.6057 119.198 88.9481 119.255 89.6327V96.2969C119.301 96.7835 119.552 97.027 120.001 97.027H121.856V78.8408H120.026V78.8405ZM104.398 78.9146C96.4383 78.8858 91.9284 78.8858 90.8733 78.9146C90.4981 78.9476 90.3083 79.1044 90.3083 79.3931V81.653C90.7579 81.1499 91.17 80.7331 91.545 80.3991C91.9613 79.9743 92.6003 79.7065 93.4537 79.5991C93.7216 79.5536 94.3813 79.5329 95.4282 79.5329C96.2075 79.5164 96.595 80.0774 96.595 81.2198C96.595 81.3433 96.595 81.5166 96.595 81.7433C96.595 81.9745 96.595 82.131 96.595 82.2218V97.1215H98.4252C98.9239 97.0762 99.1712 96.771 99.1712 96.2061V81.6117C99.1712 80.8653 99.2167 80.3784 99.3073 80.1478C99.4763 79.7518 99.8597 79.5458 100.462 79.5293C102.028 79.517 103.054 79.6075 103.537 79.8096C104.184 80.1149 104.811 80.6921 105.412 81.5376V79.6159C105.367 79.1497 105.029 78.9149 104.398 78.9149L104.398 78.9146ZM81.2725 87.183L89.5048 78.8363H88.1032C87.8434 78.8075 87.4975 79.0426 87.0602 79.5499C86.8501 79.7931 84.5581 82.4779 80.1881 87.5956C79.8998 87.8555 79.6648 87.9872 79.4874 87.9872C79.2605 87.9872 79.1367 87.8099 79.1247 87.4594V79.8465C79.2152 79.2198 78.8154 78.8816 77.9252 78.8363H76.4329V97.1793H78.263C78.7908 97.1793 79.0792 96.9898 79.1247 96.6063V89.7316C79.17 89.4099 79.2731 89.2492 79.4418 89.2492C79.5614 89.2492 79.681 89.3112 79.8006 89.4348C79.9819 89.6327 82.0638 91.9462 86.0418 96.3752C86.4952 96.866 87.0848 97.134 87.806 97.1793H89.5704L81.2723 87.183H81.2725ZM71.7707 80.4486C72.6695 80.8941 73.2258 81.4878 73.4401 82.2344V80.2672C73.4401 79.4423 72.9291 79.001 71.9067 78.9392C70.5217 78.8936 67.6444 78.8936 63.2831 78.9392C62.0176 78.9392 61.3373 79.5578 61.2467 80.7907V97.1791H72.4348C72.7112 97.1791 72.9375 97.1257 73.1233 97.0222C73.3334 96.8531 73.4404 96.5935 73.4404 96.2427V93.7933C73.3787 94.5849 72.7933 95.2367 71.6801 95.7398C70.4147 96.2262 68.8028 96.4696 66.8531 96.4696H63.8313V89.925C63.8313 89.1167 64.128 88.6798 64.7259 88.6219H69.6891C70.0395 88.7125 70.2208 88.5764 70.2373 88.2096C70.1632 88.1023 69.9034 88.0405 69.4583 88.0241H63.8768V80.976C63.8768 80.168 64.2353 79.7308 64.9525 79.6729C66.7374 79.6729 67.4714 79.6648 67.1495 79.6483C68.3244 79.6771 69.4292 79.7926 70.4681 79.9905C70.9542 80.114 71.3915 80.2669 71.7707 80.448V80.4486ZM56.3411 81.6611C55.0302 79.7311 53.3277 78.7662 51.2336 78.7662C49.3618 78.7662 47.7007 79.5787 46.2455 81.212C44.7904 82.8365 43.9371 84.8613 43.6772 87.2741C43.6361 87.6783 43.6113 88.0948 43.6113 88.5154C43.6113 90.7175 44.1924 92.664 45.3509 94.3548C46.6496 96.2846 48.352 97.2498 50.4627 97.2498C52.3344 97.2498 53.9952 96.4333 55.4507 94.8043C56.9058 93.1755 57.7592 91.1546 58.0148 88.7421C58.0604 88.338 58.0849 87.9215 58.0849 87.5008C58.0849 85.2988 57.5038 83.3522 56.3414 81.6614L56.3411 81.6611ZM55.7762 88.3128C55.6566 90.6677 55.0919 92.6512 54.0821 94.2718C53.0721 95.8966 51.9097 96.6759 50.5987 96.6142C49.288 96.5398 48.2078 95.6448 47.3668 93.9336C46.5219 92.2221 46.1589 90.1892 46.2785 87.8384C46.402 85.4715 46.967 83.4755 47.9768 81.8548C48.9865 80.2342 50.145 79.4588 51.4599 79.5374C52.7709 79.5949 53.8469 80.4819 54.6921 82.1931C55.537 83.9045 55.8958 85.9458 55.7762 88.3128ZM41.2369 82.3415C40.4372 80.3413 38.3967 79.2073 35.1114 78.9476C34.3114 78.8732 32.7945 78.8322 30.5643 78.8322C29.9459 78.8816 29.6369 79.1494 29.6369 79.6363V97.1341H31.125C31.3022 97.1218 31.4589 97.0969 31.595 97.0681C31.9208 96.9607 32.1435 96.7916 32.2589 96.5608V90.28C34.5179 90.28 36.2203 90.119 37.3746 89.7976C38.0549 89.5997 38.6979 89.2699 39.3039 88.812C39.8191 88.4285 40.2975 87.8924 40.7342 87.2037C41.3279 86.243 41.6205 85.2571 41.6205 84.2469C41.6205 83.6035 41.4928 82.9684 41.2371 82.3418L41.2369 82.3415ZM36.8054 88.6261C36.0222 89.1622 34.9792 89.4675 33.685 89.546C33.1407 89.5748 32.6665 89.5994 32.2586 89.612V80.5766C32.201 79.9209 32.5017 79.562 33.1656 79.5005C34.101 79.5005 34.8227 79.5664 35.3338 79.7068C36.3888 79.9832 37.2712 80.5478 37.9803 81.4015C38.6439 82.181 38.9778 83.1543 38.9778 84.3171C38.9778 86.1809 38.2525 87.6162 36.8054 88.6264V88.6261ZM80.4645 21.0337H81.8696C81.7473 21.0963 81.6897 21.2299 81.697 21.3613C81.6422 21.3694 81.5874 21.3786 81.5335 21.3926C81.196 21.479 80.8244 21.4664 80.4648 21.4561V21.0337H80.4645ZM80.4645 46.0851H83.8059L82.7777 46.9975C82.7506 46.9734 82.7157 46.9558 82.6682 46.9558H80.4645V46.0851ZM80.4645 47.3046H82.4318L81.6472 48.0012H80.4645V47.3046ZM80.4645 48.3503H81.2547L80.4645 49.0516V48.3503ZM88.0418 11.8388C88.0354 11.8343 88.0272 11.8306 88.0169 11.8287C87.5835 11.7499 87.1901 11.7462 86.7487 11.7395C86.507 11.7362 86.2754 11.6439 86.0393 11.5886H87.7593L88.0418 11.839V11.8388ZM113.785 30.0565H115.776C115.774 30.0641 115.774 30.0719 115.776 30.0794C115.506 30.1493 115.202 30.137 114.928 30.175C114.557 30.2262 114.166 30.2063 113.785 30.1985V30.0568L113.785 30.0565ZM113.785 42.8967H116.052C116.212 42.8967 116.374 42.9067 116.534 42.9098C116.467 43.0057 116.45 43.1345 116.487 43.2463C116.123 43.2477 115.76 43.2486 115.398 43.2427C115.379 43.1756 115.327 43.1208 115.236 43.1239C114.933 43.1317 114.674 43.2407 114.381 43.3006C114.352 43.3062 114.323 43.3092 114.293 43.3137C114.125 43.3215 113.955 43.3201 113.785 43.3171V42.8967ZM113.785 49.2361C113.794 49.2515 113.807 49.2641 113.823 49.2674C114.026 49.3113 114.224 49.2923 114.429 49.2842C114.733 49.2727 115.038 49.2822 115.341 49.2822C115.963 49.2808 116.583 49.2654 117.199 49.3661C117.297 49.3823 117.396 49.4013 117.497 49.4211H113.785V49.2364L113.785 49.2361ZM113.785 50.118C113.878 50.1166 113.971 50.1113 114.064 50.0953C114.39 50.04 114.683 49.9209 115.019 49.9192C115.044 49.9184 115.065 49.9142 115.084 49.9061H117.399C117.396 50.0098 117.433 50.1143 117.509 50.1837H113.785V50.118ZM118.077 25.4758L118.311 25.684H116.758C116.788 25.6181 116.795 25.5423 116.785 25.4702C116.794 25.4738 116.802 25.4758 116.813 25.4758H118.077ZM123.705 30.4727L124.016 30.7486C123.812 30.7472 123.607 30.7441 123.402 30.7508C123.123 30.7587 122.849 30.8165 122.569 30.821C122.249 30.8252 121.942 30.8889 121.632 30.9457L121.753 30.8252C121.863 30.7151 121.874 30.5845 121.83 30.4727H123.705ZM126.989 33.3875L127.459 33.8043H125.489C125.527 33.6391 125.457 33.4487 125.283 33.3875H126.989H126.989ZM132.149 37.9682L132.46 38.245H130.214C130.408 38.245 130.517 38.1158 130.544 37.9682H132.149ZM131.908 38.8708H129.652C129.746 38.8627 129.84 38.8509 129.933 38.8314C130.464 38.721 131.11 38.7853 131.642 38.8481C131.731 38.8585 131.819 38.8658 131.908 38.8711L131.908 38.8708Z" fill="#D7B56D"/>
</g>
</g>
</svg>
